<?xml version="1.0" encoding="utf-8"?>
<!-- Generator: Adobe Illustrator 17.0.0, SVG Export Plug-In . SVG Version: 6.00 Build 0)  -->
<!DOCTYPE svg PUBLIC "-//W3C//DTD SVG 1.1//EN" "http://www.w3.org/Graphics/SVG/1.1/DTD/svg11.dtd">
<svg version="1.1" id="Layer_1" xmlns:sketch="http://www.bohemiancoding.com/sketch/ns"
	 xmlns="http://www.w3.org/2000/svg" xmlns:xlink="http://www.w3.org/1999/xlink" x="0px" y="0px" width="21px" height="21px"
	 viewBox="0 0 21 21" enable-background="new 0 0 21 21" xml:space="preserve">
<title></title>
<polygon points="12.92,3 12.926,2 8.018,2 8.013,3 "/>
<path d="M5.75,0C5.336,0,5,0.334,5,0.752v2.495C5,3.663,5.335,4,5.75,4H6.25C6.664,4,7,3.666,7,3.248V0.752C7,0.337,6.665,0,6.25,0
	H5.75L5.75,0z"/>
<path d="M15,0c-0.552,0-1,0.447-1,0.999v2.002C14,3.553,14.449,4,15,4c0.552,0,1-0.447,1-0.999V0.999C16,0.447,15.551,0,15,0L15,0z"
	/>
<polygon fill="none" points="12.92,3 12.926,2 8.018,2 8.013,3 "/>
<path fill="none" d="M3.971,3l0.005-1L0.629,2C0.282,2,0,2.291,0,2.649v17.703C0,20.71,0.281,21,0.628,21h19.743
	C20.719,21,21,20.709,21,20.351V2.649C21,2.29,20.718,2,20.371,2h-3.364l-0.005,1H20v5H1V3H3.971z"/>
<path d="M20.371,2h-3.364l-0.005,1H20v5H1V3h2.971l0.005-1H0.629C0.281,2,0,2.291,0,2.648v17.703C0,20.71,0.281,21,0.628,21h19.743
	C20.719,21,21,20.709,21,20.352V2.648C21,2.29,20.718,2,20.371,2z M4,20H1.43C1.192,20,1,19.833,1,19.626V17h3V20z M4,16H1v-3h3V16z
	 M4,12H1V9h3V12z M8,20H5v-3h3V20z M8,16H5v-3h3V16z M8,12H5V9h3V12z M12,20H9v-3h3V20z M12,12H9V9h3V12z M16,20h-3v-3h3V20z M16,16
	h-3v-3h3V16z M16,12h-3V9h3V12z M20,19.626C20,19.832,19.808,20,19.57,20H17v-3h3V19.626z M20,16h-3v-3h3V16z M20,12h-3V9h3V12z"/>
<path fill="none" d="M5.75,0C5.336,0,5,0.334,5,0.752v2.495C5,3.663,5.335,4,5.75,4H6.25C6.664,4,7,3.666,7,3.248V0.752
	C7,0.337,6.665,0,6.25,0H5.75L5.75,0z"/>
<path fill="none" d="M15,0c-0.552,0-1,0.447-1,0.999v2.002C14,3.553,14.449,4,15,4c0.552,0,1-0.447,1-0.999V0.999
	C16,0.447,15.551,0,15,0L15,0z"/>
</svg>
