<?xml version="1.0" ?><!DOCTYPE svg  PUBLIC '-//W3C//DTD SVG 1.1//EN'  'http://www.w3.org/Graphics/SVG/1.1/DTD/svg11.dtd'><svg enable-background="new 0 0 512 512" height="512px" id="Layer_1" version="1.1" viewBox="0 0 512 512" width="512px" xml:space="preserve" xmlns="http://www.w3.org/2000/svg" xmlns:xlink="http://www.w3.org/1999/xlink"><g><path d="M461.844,387.891l-75.492-55.938C405.039,303.156,416,268.875,416,232c0-101.609-82.375-184-184-184   S48,130.391,48,232c0,101.609,82.375,184,184,184c35,0,67.594-9.953,95.445-26.906l60.461,72.734   c20.297,23.188,54.688,24.328,76.469,2.547C486.148,442.578,485.031,408.188,461.844,387.891z M112,232   c0-66.266,53.719-120,120-120c66.289,0,120,53.734,120,120c0,66.266-53.711,120-120,120C165.719,352,112,298.266,112,232z" fill="#4D4D4D"/></g></svg>