<?xml version="1.0" ?><!DOCTYPE svg  PUBLIC '-//W3C//DTD SVG 1.1//EN'  'http://www.w3.org/Graphics/SVG/1.1/DTD/svg11.dtd'><svg baseProfile="full" height="42px" version="1.1" width="60px" xmlns="http://www.w3.org/2000/svg" xmlns:ev="http://www.w3.org/2001/xml-events" xmlns:xlink="http://www.w3.org/1999/xlink"><path d="M59,42 C58.4480000000001,42 58,41.552 58,41 C58,41 58,38 58,38 C58,38 2,38 2,38 C2,38 2,41 2,41 C2,41.552 1.55199999999991,42 1,42 C0.44800000000009,42 0,41.552 0,41 C0,41 0,37 0,37 C0,37 0,31 0,31 C0,31 0,27 0,27 C0,24.215 1.6389999999999,21.811 4,20.6849999999999 C4,20.6849999999999 4,7 4,7 C4,3.13999999999999 7.1400000000001,0 11,0 C11,0 49,0 49,0 C52.8599999999999,0 56,3.13999999999999 56,7 C56,7 56,20.6849999999999 56,20.6849999999999 C58.3610000000001,21.811 60,24.215 60,27 C60,27 60,31 60,31 C60,31 60,37 60,37 C60,37 60,41 60,41 C60,41.552 59.5519999999999,42 59,42 ZM54,7 C54,4.24300000000005 51.7570000000001,2 49,2 C49,2 11,2 11,2 C8.24299999999994,2 6,4.24300000000005 6,7 C6,7 6,20.08 6,20.08 C6.32799999999997,20.033 6.66000000000008,20 7,20 C7,20 9.43900000000008,20 9.43900000000008,20 C9.15900000000011,19.378 9,18.703 9,18 C9,16.696 9.50800000000004,15.47 10.4300000000001,14.548 C10.4300000000001,14.548 14.548,10.4299999999999 14.548,10.4299999999999 C15.47,9.50800000000004 16.6959999999999,9 18,9 C19.3040000000001,9 20.53,9.50800000000004 21.452,10.4299999999999 C21.452,10.4299999999999 25.5699999999999,14.548 25.5699999999999,14.548 C26.492,15.47 27,16.696 27,18 C27,18.703 26.8409999999999,19.378 26.5609999999999,20 C26.5609999999999,20 33.4390000000001,20 33.4390000000001,20 C33.1590000000001,19.378 33,18.703 33,18 C33,16.696 33.508,15.47 34.4300000000001,14.548 C34.4300000000001,14.548 38.548,10.4299999999999 38.548,10.4299999999999 C39.47,9.50800000000004 40.6959999999999,9 42,9 C43.3040000000001,9 44.53,9.50800000000004 45.452,10.4299999999999 C45.452,10.4299999999999 49.5699999999999,14.548 49.5699999999999,14.548 C50.492,15.47 51,16.696 51,18 C51,18.703 50.8409999999999,19.378 50.5609999999999,20 C50.5609999999999,20 53,20 53,20 C53.3399999999999,20 53.672,20.033 54,20.08 C54,20.08 54,7 54,7 ZM11,18 C11,18.752 11.2860000000001,19.46 11.807,20 C11.807,20 24.193,20 24.193,20 C24.7139999999999,19.46 25,18.752 25,18 C25,17.23 24.7,16.506 24.1559999999999,15.962 C24.1559999999999,15.962 20.038,11.8440000000001 20.038,11.8440000000001 C18.9490000000001,10.755 17.0509999999999,10.755 15.962,11.8440000000001 C15.962,11.8440000000001 11.8440000000001,15.962 11.8440000000001,15.962 C11.3,16.506 11,17.23 11,18 ZM49,18 C49,17.23 48.7,16.506 48.1559999999999,15.962 C48.1559999999999,15.962 44.038,11.8440000000001 44.038,11.8440000000001 C42.9490000000001,10.755 41.0509999999999,10.755 39.962,11.8440000000001 C39.962,11.8440000000001 35.8440000000001,15.962 35.8440000000001,15.962 C35.3,16.506 35,17.23 35,18 C35,18.752 35.2860000000001,19.46 35.807,20 C35.807,20 48.193,20 48.193,20 C48.7139999999999,19.46 49,18.752 49,18 ZM58,27 C58,24.2430000000001 55.7570000000001,22 53,22 C53,22 48.6079999999999,22 48.6079999999999,22 C48.6079999999999,22 35.3920000000001,22 35.3920000000001,22 C35.3920000000001,22 24.6079999999999,22 24.6079999999999,22 C24.6079999999999,22 11.3920000000001,22 11.3920000000001,22 C11.3920000000001,22 7,22 7,22 C4.24299999999994,22 2,24.2430000000001 2,27 C2,27 2,30 2,30 C2,30 58,30 58,30 C58,30 58,27 58,27 ZM58,32 C58,32 2,32 2,32 C2,32 2,36 2,36 C2,36 58,36 58,36 C58,36 58,32 58,32 ZM50,14 C49.74,14 49.48,13.89 49.29,13.71 C49.1099999999999,13.52 49,13.26 49,13 C49,12.74 49.1099999999999,12.48 49.29,12.29 C49.6700000000001,11.92 50.3299999999999,11.92 50.71,12.29 C50.8900000000001,12.48 51,12.74 51,13 C51,13.26 50.8900000000001,13.52 50.71,13.71 C50.52,13.89 50.26,14 50,14 ZM50,6 C49.74,6 49.48,5.88999999999999 49.29,5.71000000000004 C49.1099999999999,5.51999999999998 49,5.25999999999999 49,5 C49,4.74000000000001 49.1099999999999,4.48000000000002 49.29,4.28999999999996 C49.6700000000001,3.91999999999996 50.3299999999999,3.91999999999996 50.71,4.28999999999996 C50.8900000000001,4.48000000000002 51,4.74000000000001 51,5 C51,5.25999999999999 50.8900000000001,5.51999999999998 50.71,5.71000000000004 C50.52,5.88999999999999 50.26,6 50,6 ZM46,10 C45.74,10 45.48,9.88999999999999 45.29,9.71000000000004 C45.1099999999999,9.51999999999998 45,9.25999999999999 45,9 C45,8.73000000000002 45.1099999999999,8.48000000000002 45.29,8.28999999999996 C45.6600000000001,7.91999999999996 46.3299999999999,7.91999999999996 46.71,8.28999999999996 C46.8900000000001,8.48000000000002 47,8.74000000000001 47,9 C47,9.25999999999999 46.8900000000001,9.51999999999998 46.71,9.71000000000004 C46.52,9.88999999999999 46.26,10 46,10 ZM42,6 C41.74,6 41.48,5.88999999999999 41.29,5.71000000000004 C41.1099999999999,5.51999999999998 41,5.25999999999999 41,5 C41,4.74000000000001 41.1099999999999,4.48000000000002 41.29,4.28999999999996 C41.6700000000001,3.91999999999996 42.3399999999999,3.91999999999996 42.71,4.28999999999996 C42.8900000000001,4.48000000000002 43,4.74000000000001 43,5 C43,5.26999999999998 42.8900000000001,5.51999999999998 42.7,5.71000000000004 C42.52,5.88999999999999 42.27,6 42,6 ZM38,10 C37.74,10 37.48,9.88999999999999 37.29,9.71000000000004 C37.1099999999999,9.51999999999998 37,9.25999999999999 37,9 C37,8.74000000000001 37.1099999999999,8.48000000000002 37.29,8.28999999999996 C37.6600000000001,7.91999999999996 38.3399999999999,7.91999999999996 38.71,8.28999999999996 C38.8889999999999,8.48000000000002 39,8.74000000000001 39,9 C39,9.25999999999999 38.8889999999999,9.51999999999998 38.71,9.71000000000004 C38.52,9.88999999999999 38.26,10 38,10 ZM34,14 C33.73,14 33.48,13.89 33.29,13.71 C33.1099999999999,13.52 33,13.26 33,13 C33,12.73 33.1099999999999,12.48 33.29,12.29 C33.6600000000001,11.92 34.3399999999999,11.92 34.71,12.29 C34.8900000000001,12.48 35,12.73 35,13 C35,13.26 34.8900000000001,13.52 34.71,13.71 C34.52,13.89 34.27,14 34,14 ZM34,6 C33.74,6 33.48,5.89999999999998 33.29,5.71000000000004 C33.1099999999999,5.51999999999998 33,5.25999999999999 33,5 C33,4.74000000000001 33.1099999999999,4.48000000000002 33.29,4.28999999999996 C33.6600000000001,3.91999999999996 34.3399999999999,3.91999999999996 34.71,4.28999999999996 C34.8900000000001,4.48000000000002 35,4.74000000000001 35,5 C35,5.25999999999999 34.8900000000001,5.51999999999998 34.71,5.71000000000004 C34.52,5.88999999999999 34.26,6 34,6 ZM30,18 C29.74,18 29.48,17.89 29.29,17.71 C29.1099999999999,17.52 29,17.27 29,17 C29,16.73 29.1099999999999,16.48 29.3,16.29 C29.6600000000001,15.9299999999999 30.3399999999999,15.92 30.71,16.3 C30.8900000000001,16.48 31,16.74 31,17 C31,17.27 30.8900000000001,17.52 30.71,17.71 C30.52,17.89 30.27,18 30,18 ZM30,10 C29.74,10 29.48,9.88999999999999 29.29,9.71000000000004 C29.1099999999999,9.51999999999998 29,9.25999999999999 29,9 C29,8.74000000000001 29.1099999999999,8.48000000000002 29.29,8.28999999999996 C29.6600000000001,7.91999999999996 30.3399999999999,7.91999999999996 30.71,8.28999999999996 C30.8900000000001,8.48000000000002 31,8.74000000000001 31,9 C31,9.25999999999999 30.8900000000001,9.51999999999998 30.71,9.71000000000004 C30.52,9.88999999999999 30.26,10 30,10 ZM26,14 C25.74,14 25.48,13.89 25.29,13.71 C25.1099999999999,13.52 25,13.26 25,13 C25,12.74 25.1099999999999,12.48 25.29,12.29 C25.6700000000001,11.92 26.3399999999999,11.92 26.71,12.29 C26.8900000000001,12.48 27,12.74 27,13 C27,13.26 26.8900000000001,13.52 26.71,13.71 C26.52,13.89 26.27,14 26,14 ZM26,6 C25.74,6 25.48,5.88999999999999 25.29,5.71000000000004 C25.1099999999999,5.51999999999998 25,5.25999999999999 25,5 C25,4.74000000000001 25.1099999999999,4.48000000000002 25.29,4.28999999999996 C25.6700000000001,3.91999999999996 26.3399999999999,3.91999999999996 26.71,4.28999999999996 C26.8900000000001,4.48000000000002 27,4.74000000000001 27,5 C27,5.25999999999999 26.8900000000001,5.51999999999998 26.71,5.71000000000004 C26.52,5.88999999999999 26.26,6 26,6 ZM22,10 C21.74,10 21.48,9.88999999999999 21.29,9.71000000000004 C21.1099999999999,9.51999999999998 21,9.25999999999999 21,9 C21,8.74000000000001 21.1099999999999,8.48000000000002 21.29,8.28999999999996 C21.6700000000001,7.91999999999996 22.3399999999999,7.91999999999996 22.71,8.28999999999996 C22.8889999999999,8.48000000000002 23,8.74000000000001 23,9 C23,9.25999999999999 22.8889999999999,9.51999999999998 22.71,9.71000000000004 C22.52,9.88999999999999 22.26,10 22,10 ZM18,6 C17.73,6 17.48,5.88999999999999 17.29,5.71000000000004 C17.1099999999999,5.51999999999998 17,5.25999999999999 17,5 C17,4.73000000000002 17.1099999999999,4.48000000000002 17.29,4.28999999999996 C17.6600000000001,3.92999999999995 18.3299999999999,3.91999999999996 18.71,4.28999999999996 C18.8900000000001,4.48000000000002 19,4.74000000000001 19,5 C19,5.25999999999999 18.8900000000001,5.51999999999998 18.71,5.71000000000004 C18.52,5.88999999999999 18.26,6 18,6 ZM14,10 C13.74,10 13.48,9.88999999999999 13.29,9.71000000000004 C13.1099999999999,9.51999999999998 13,9.25999999999999 13,9 C13,8.74000000000001 13.1099999999999,8.48000000000002 13.29,8.28999999999996 C13.6600000000001,7.91999999999996 14.3299999999999,7.91999999999996 14.71,8.28999999999996 C14.8900000000001,8.48000000000002 15,8.74000000000001 15,9 C15,9.25999999999999 14.8900000000001,9.51999999999998 14.71,9.71000000000004 C14.52,9.88999999999999 14.26,10 14,10 ZM10,14 C9.74000000000001,14 9.48000000000002,13.89 9.28999999999996,13.71 C9.1099999999999,13.52 9,13.26 9,13 C9,12.74 9.1099999999999,12.48 9.28999999999996,12.29 C9.66000000000008,11.92 10.3299999999999,11.92 10.71,12.29 C10.8900000000001,12.48 11,12.74 11,13 C11,13.26 10.8900000000001,13.52 10.71,13.71 C10.52,13.89 10.26,14 10,14 ZM10,6 C9.74000000000001,6 9.48000000000002,5.88999999999999 9.28999999999996,5.71000000000004 C9.1099999999999,5.51999999999998 9,5.25999999999999 9,5 C9,4.74000000000001 9.1099999999999,4.48000000000002 9.28999999999996,4.28999999999996 C9.67000000000007,3.91999999999996 10.3299999999999,3.91999999999996 10.71,4.28999999999996 C10.8900000000001,4.48000000000002 11,4.74000000000001 11,5 C11,5.25999999999999 10.8900000000001,5.51999999999998 10.71,5.71000000000004 C10.52,5.88999999999999 10.26,6 10,6 Z " fill="rgb( 80, 80, 112 )"/></svg>