<?xml version="1.0" ?><!DOCTYPE svg  PUBLIC '-//W3C//DTD SVG 1.1//EN'  'http://www.w3.org/Graphics/SVG/1.1/DTD/svg11.dtd'><svg baseProfile="full" height="38px" version="1.1" width="54px" xmlns="http://www.w3.org/2000/svg" xmlns:ev="http://www.w3.org/2001/xml-events" xmlns:xlink="http://www.w3.org/1999/xlink"><path d="M51,6 C51,6 30,6 30,6 C30,6 30,22.7809999999999 30,22.7809999999999 C30,22.7809999999999 43.5930000000001,36.1799999999999 43.5930000000001,36.1799999999999 C43.8510000000001,36.361 44.02,36.6609999999999 44.02,37 C44.02,37.552 43.5719999999999,38 43.02,38 C43.0129999999999,37.999 43.0060000000001,37.999 43,38 C43,38 37.2,38 37.2,38 C36.9349999999999,38 36.681,37.894 36.4929999999999,37.707 C36.4929999999999,37.707 30,31.2140000000001 30,31.2140000000001 C30,31.2140000000001 30,37 30,37 C30,37.552 29.5519999999999,38 29,38 C29,38 25,38 25,38 C24.4480000000001,38 24,37.552 24,37 C24,37 24,31.2140000000001 24,31.2140000000001 C24,31.2140000000001 17.5070000000001,37.707 17.5070000000001,37.707 C17.319,37.894 17.0650000000001,38 16.8,38 C16.8,38 11,38 11,38 C10.5940000000001,38 10.2280000000001,37.755 10.075,37.379 C9.92100000000005,37.004 10.009,36.573 10.298,36.288 C10.298,36.288 24,22.7809999999999 24,22.7809999999999 C24,22.7809999999999 24,6 24,6 C24,6 3,6 3,6 C1.346,6 0,4.654 0,3 C0,1.346 1.346,0 3,0 C3,0 51,0 51,0 C52.654,0 54,1.346 54,3 C54,4.654 52.654,6 51,6 ZM30,28.386 C30,28.386 37.614,36 37.614,36 C37.614,36 40.5609999999999,36 40.5609999999999,36 C40.5609999999999,36 30,25.59 30,25.59 C30,25.59 30,28.386 30,28.386 ZM13.4390000000001,36 C13.4390000000001,36 16.386,36 16.386,36 C16.386,36 24,28.386 24,28.386 C24,28.386 24,25.59 24,25.59 C24,25.59 13.4390000000001,36 13.4390000000001,36 ZM26,23.2 C26,23.2 26,28.8 26,28.8 C26,28.8 26,36 26,36 C26,36 28,36 28,36 C28,36 28,28.8 28,28.8 C28,28.8 28,23.2 28,23.2 C28,23.2 28,6 28,6 C28,6 26,6 26,6 C26,6 26,23.2 26,23.2 ZM51,2 C51,2 3,2 3,2 C2.44900000000007,2 2,2.44899999999996 2,3 C2,3.55100000000004 2.44900000000007,4 3,4 C3,4 25,4 25,4 C25,4 29,4 29,4 C29,4 51,4 51,4 C51.5509999999999,4 52,3.55100000000004 52,3 C52,2.44899999999996 51.5509999999999,2 51,2 Z " fill="rgb( 80, 80, 112 )"/></svg>