<?xml version="1.0" encoding="utf-8"?>
<!-- Generator: Adobe Illustrator 17.0.0, SVG Export Plug-In . SVG Version: 6.00 Build 0)  -->
<!DOCTYPE svg PUBLIC "-//W3C//DTD SVG 1.1//EN" "http://www.w3.org/Graphics/SVG/1.1/DTD/svg11.dtd">
<svg version="1.1" id="Layer_1" xmlns="http://www.w3.org/2000/svg" xmlns:xlink="http://www.w3.org/1999/xlink" x="0px" y="0px"
	 width="60px" height="60px" viewBox="-1.653 -1.654 60 60" enable-background="new -1.653 -1.654 60 60" xml:space="preserve">
<path fill="#FFFFFF" d="M46.751-1.654H9.942c-6.394,0-11.596,5.201-11.596,11.594v12.248v24.562c0,6.394,5.202,11.594,11.596,11.594
	h36.81c6.394,0,11.594-5.201,11.594-11.594V22.187V9.94C58.345,3.546,53.145-1.654,46.751-1.654z M50.077,5.261l1.326-0.005v1.32
	v8.849l-10.136,0.033L41.232,5.29L50.077,5.261z M19.783,22.187c1.922-2.659,5.04-4.403,8.564-4.403s6.642,1.744,8.561,4.403
	c1.25,1.736,1.999,3.858,1.999,6.158c0,5.823-4.742,10.56-10.562,10.56c-5.824,0-10.561-4.737-10.561-10.56
	C17.786,26.046,18.532,23.923,19.783,22.187z M52.5,46.75c0,3.172-2.579,5.749-5.749,5.749H9.942c-3.171,0-5.75-2.577-5.75-5.749
	V22.187h8.956c-0.773,1.903-1.208,3.981-1.208,6.158c0,9.044,7.358,16.408,16.406,16.408c9.047,0,16.405-7.363,16.405-16.408
	c0-2.177-0.437-4.255-1.21-6.158H52.5V46.75z"/>
</svg>
