<?xml version="1.0" encoding="utf-8"?>
<!-- Generator: Adobe Illustrator 17.0.0, SVG Export Plug-In . SVG Version: 6.00 Build 0)  -->
<!DOCTYPE svg PUBLIC "-//W3C//DTD SVG 1.1//EN" "http://www.w3.org/Graphics/SVG/1.1/DTD/svg11.dtd">
<svg version="1.1"
	 id="svg2" xmlns:dc="http://purl.org/dc/elements/1.1/" xmlns:cc="http://creativecommons.org/ns#" xmlns:sodipodi="http://sodipodi.sourceforge.net/DTD/sodipodi-0.dtd" xmlns:inkscape="http://www.inkscape.org/namespaces/inkscape" xmlns:svg="http://www.w3.org/2000/svg" xmlns:rdf="http://www.w3.org/1999/02/22-rdf-syntax-ns#"
	 xmlns="http://www.w3.org/2000/svg" xmlns:xlink="http://www.w3.org/1999/xlink" x="0px" y="0px" width="500px" height="500px"
	 viewBox="0 0 500 500" enable-background="new 0 0 500 500" xml:space="preserve">
<g id="layer1" transform="translate(0,-552.36218)">
	<path id="rect2995" fill="#FFFFFF" d="M50,552.362c-27.7,0-50,22.3-50,50v400c0,27.7,22.3,50,50,50h400c27.7,0,50-22.3,50-50v-400
		c0-27.7-22.3-50-50-50H50z M175.938,627.925c42.96,0,45.809,43.829,45.938,87.812H346c19.674,0,34.375,19.992,34.375,50.469
		c0,30.498-31.8,37.312-48.469,37.312H220.5c-0.572,18.651-1.156,33.889-1.156,43.125c0,19.459,7.561,40.438,55,40.438h66.688
		c16.669,0,41.344,12.631,41.344,47.844c0,35.212-34.804,38.438-46.938,38.438s-79.296-1.594-96.438-1.594
		S132.5,943.889,132.5,845.55c0-17.549-0.02-35.093-0.062-52.656c-0.072-16.318-0.411-32.667-0.469-48.906
		c-0.014-4.722-0.034-9.449-0.062-14.156c-0.1-24.789-2.227-52.66,5.75-76.469C143.737,635.241,158.174,627.925,175.938,627.925z"/>
</g>
</svg>
