<?xml version="1.0" encoding="utf-8"?>
<!-- Generator: Adobe Illustrator 18.1.0, SVG Export Plug-In . SVG Version: 6.00 Build 0)  -->
<svg version="1.1" id="Layer_1" xmlns:sketch="http://www.bohemiancoding.com/sketch/ns"
	 xmlns="http://www.w3.org/2000/svg" xmlns:xlink="http://www.w3.org/1999/xlink" x="0px" y="0px" viewBox="-468 272 22 18"
	 enable-background="new -468 272 22 18" xml:space="preserve">
<title>outline_table</title>
<description>Created with Sketch (http://www.bohemiancoding.com/sketch)</description>
<g id="House" sketch:type="MSPage">
	<g id="_x31_" transform="translate(-395.000000, -61.000000)" sketch:type="MSLayerGroup">
		<path id="outline_table" sketch:type="MSShapeGroup" d="M-69.9,338.5v8.9c0,0,0,0.3,0.4,0.3s0.4-0.3,0.4-0.3V339l0,0l5.2,0.5v5.6
			c0,0,0,0.3,0.4,0.3c0.4,0,0.4-0.3,0.4-0.3v-5.5l3,0.3v8.6c0,0,0,0.3,0.4,0.3c0.4,0,0.4-0.3,0.4-0.3v-8.5l5.2-1.7v8.1
			c0,0,0,0.3,0.4,0.3c0.4,0,0.4-0.3,0.4-0.3V338l0,0v-0.7l0,0v-0.4l0,0v0l-10.2-1l-6.1,2V338.5z M-69.1,338.3l9.5,1l5.3-1.8l-9.5-1
			L-69.1,338.3z"/>
	</g>
</g>
</svg>
