<?xml version="1.0" ?><!DOCTYPE svg  PUBLIC '-//W3C//DTD SVG 1.1//EN'  'http://www.w3.org/Graphics/SVG/1.1/DTD/svg11.dtd'><svg baseProfile="full" height="49px" version="1.1" width="61px" xmlns="http://www.w3.org/2000/svg" xmlns:ev="http://www.w3.org/2001/xml-events" xmlns:xlink="http://www.w3.org/1999/xlink"><path d="M55.008,41.018 C57.7650000000001,41.018 60.008,43.261 60.008,46.018 C60.008,46.018 60.008,47.018 60.008,47.018 C60.008,47.57 59.5609999999999,48.018 59.008,48.018 C59.008,48.018 37.008,48.018 37.008,48.018 C37.008,48.018 23.0070000000001,48.018 23.0070000000001,48.018 C23.0070000000001,48.018 1.00700000000006,48.018 1.00700000000006,48.018 C0.45399999999995,48.018 0.00600000000009,47.57 0.00600000000009,47.018 C0.00600000000009,47.018 0.00600000000009,46.018 0.00600000000009,46.018 C0.00600000000009,43.327 2.14300000000003,41.127 4.80799999999999,41.022 C5.12899999999991,40.465 5.53999999999996,39.98 6.00600000000009,39.562 C6.00600000000009,39.562 6.00600000000009,20.02 6.00600000000009,20.02 C6.00600000000009,20.02 3.00600000000009,20.02 3.00600000000009,20.02 C2.45399999999995,20.02 2.00600000000009,19.572 2.00600000000009,19.02 C2.00600000000009,19.02 2.00600000000009,15.02 2.00600000000009,15.02 C2.00600000000009,14.625 2.23900000000003,14.267 2.59999999999991,14.106 C2.59999999999991,14.106 29.6010000000001,2.10700000000003 29.6010000000001,2.10700000000003 C29.8599999999999,1.99200000000002 30.155,1.99200000000002 30.414,2.10700000000003 C30.414,2.10700000000003 45.008,8.59300000000002 45.008,8.59300000000002 C45.008,8.59300000000002 45.008,6.01999999999998 45.008,6.01999999999998 C44.4559999999999,6.01999999999998 44.008,5.57299999999998 44.008,5.01999999999998 C44.008,5.01999999999998 44.008,1.02100000000002 44.008,1.02100000000002 C44.008,0.46800000000002 44.4559999999999,0.02100000000002 45.008,0.02100000000002 C45.008,0.02100000000002 53.008,0.02100000000002 53.008,0.02100000000002 C53.5599999999999,0.02100000000002 54.008,0.46800000000002 54.008,1.02100000000002 C54.008,1.02100000000002 54.008,5.01999999999998 54.008,5.01999999999998 C54.008,5.57299999999998 53.5599999999999,6.01999999999998 53.008,6.01999999999998 C53.008,6.01999999999998 53.008,12.148 53.008,12.148 C53.008,12.148 57.415,14.106 57.415,14.106 C57.7750000000001,14.267 58.008,14.625 58.008,15.02 C58.008,15.02 58.008,19.02 58.008,19.02 C58.008,19.572 57.5609999999999,20.02 57.008,20.02 C57.008,20.02 54.008,20.02 54.008,20.02 C54.008,20.02 54.008,41.131 54.008,41.131 C54.336,41.063 54.6690000000001,41.018 55.008,41.018 ZM38.008,23.019 C38.008,23.019 38.008,42.576 38.008,42.576 C38.126,42.508 38.2439999999999,42.439 38.3710000000001,42.382 C39.009,40.949 40.412,40.018 42.008,40.018 C42.4739999999999,40.018 42.931,40.099 43.3630000000001,40.254 C44.4929999999999,38.856 46.2,38.019 48.008,38.019 C49.5229999999999,38.019 50.933,38.61 52.008,39.586 C52.008,39.586 52.008,19.02 52.008,19.02 C52.008,19.02 52.008,17.675 52.008,17.675 C52.008,17.675 30.0070000000001,8.11099999999999 30.0070000000001,8.11099999999999 C30.0070000000001,8.11099999999999 8.00700000000006,17.675 8.00700000000006,17.675 C8.00700000000006,17.675 8.00700000000006,19.02 8.00700000000006,19.02 C8.00700000000006,19.02 8.00700000000006,38.374 8.00700000000006,38.374 C8.6389999999999,38.15 9.30999999999995,38.019 10.0070000000001,38.019 C11.8140000000001,38.019 13.5219999999999,38.856 14.652,40.254 C15.0840000000001,40.099 15.54,40.018 16.0070000000001,40.018 C17.4639999999999,40.018 18.7829999999999,40.821 19.479,42.054 C19.654,42.031 19.8299999999999,42.018 20.0070000000001,42.018 C20.739,42.018 21.4159999999999,42.23 22.0070000000001,42.575 C22.0070000000001,42.575 22.0070000000001,23.019 22.0070000000001,23.019 C22.0070000000001,22.467 22.4549999999999,22.019 23.0070000000001,22.019 C23.0070000000001,22.019 37.008,22.019 37.008,22.019 C37.5599999999999,22.019 38.008,22.467 38.008,23.019 ZM36.0070000000001,24.019 C36.0070000000001,24.019 24.0070000000001,24.019 24.0070000000001,24.019 C24.0070000000001,24.019 24.0070000000001,46.018 24.0070000000001,46.018 C24.0070000000001,46.018 36.0070000000001,46.018 36.0070000000001,46.018 C36.0070000000001,46.018 36.0070000000001,24.019 36.0070000000001,24.019 ZM5.30500000000006,43.053 C5.30500000000006,43.053 5.1400000000001,43.033 5.1400000000001,43.033 C5.096,43.027 5.05199999999991,43.018 5.00600000000009,43.018 C3.35200000000009,43.018 2.00600000000009,44.364 2.00600000000009,46.018 C2.00600000000009,46.018 22.0070000000001,46.018 22.0070000000001,46.018 C22.0060000000001,44.667 20.5899999999999,43.631 19.2639999999999,44.166 C18.998,44.273 18.701,44.26 18.4449999999999,44.133 C18.1890000000001,44.005 18.001,43.774 17.9259999999999,43.499 C17.6900000000001,42.627 16.9010000000001,42.018 16.0070000000001,42.018 C15.605,42.018 15.2170000000001,42.137 14.885,42.364 C14.655,42.52 14.3710000000001,42.573 14.0989999999999,42.511 C13.828,42.449 13.595,42.277 13.4559999999999,42.036 C12.729,40.773 11.4390000000001,40.018 10.0070000000001,40.018 C8.40200000000004,40.018 6.95700000000011,40.973 6.327,42.451 C6.15499999999997,42.854 5.74199999999996,43.103 5.30500000000006,43.053 ZM52.008,2.02100000000002 C52.008,2.02100000000002 46.008,2.02100000000002 46.008,2.02100000000002 C46.008,2.02100000000002 46.008,4.02100000000002 46.008,4.02100000000002 C46.008,4.02100000000002 52.008,4.02100000000002 52.008,4.02100000000002 C52.008,4.02100000000002 52.008,2.02100000000002 52.008,2.02100000000002 ZM47.008,6.01999999999998 C47.008,6.01999999999998 47.008,9.48200000000003 47.008,9.48200000000003 C47.008,9.48200000000003 51.008,11.259 51.008,11.259 C51.008,11.259 51.008,6.01999999999998 51.008,6.01999999999998 C51.008,6.01999999999998 47.008,6.01999999999998 47.008,6.01999999999998 ZM56.008,18.02 C56.008,18.02 56.008,15.67 56.008,15.67 C56.008,15.67 51.6189999999999,13.719 51.6189999999999,13.719 C51.6189999999999,13.719 51.6189999999999,13.719 51.6179999999999,13.719 C51.6179999999999,13.719 45.6199999999999,11.053 45.6199999999999,11.053 C45.6189999999999,11.053 45.6179999999999,11.052 45.6179999999999,11.052 C45.6179999999999,11.052 30.0070000000001,4.11500000000001 30.0070000000001,4.11500000000001 C30.0070000000001,4.11500000000001 4.00600000000009,15.67 4.00600000000009,15.67 C4.00600000000009,15.67 4.00600000000009,18.02 4.00600000000009,18.02 C4.00600000000009,18.02 6.00600000000009,18.02 6.00600000000009,18.02 C6.00600000000009,18.02 6.00600000000009,17.02 6.00600000000009,17.02 C6.00600000000009,16.622 6.24299999999994,16.262 6.60799999999995,16.103 C6.60799999999995,16.103 29.6079999999999,6.10300000000001 29.6079999999999,6.10300000000001 C29.8630000000001,5.99299999999999 30.1510000000001,5.99299999999999 30.4059999999999,6.10300000000001 C30.4059999999999,6.10300000000001 53.4069999999999,16.103 53.4069999999999,16.103 C53.7719999999999,16.262 54.008,16.622 54.008,17.02 C54.008,17.02 54.008,18.02 54.008,18.02 C54.008,18.02 56.008,18.02 56.008,18.02 ZM53.357,43.517 C53.0909999999999,43.695 52.7550000000001,43.732 52.4549999999999,43.62 C52.155,43.508 51.9269999999999,43.259 51.8420000000001,42.951 C51.3599999999999,41.224 49.7850000000001,40.018 48.008,40.018 C46.576,40.018 45.2860000000001,40.773 44.558,42.036 C44.4190000000001,42.277 44.1869999999999,42.449 43.9159999999999,42.511 C43.644,42.573 43.3589999999999,42.52 43.1300000000001,42.364 C42.798,42.137 42.4100000000001,42.018 42.008,42.018 C41.127,42.018 40.3630000000001,42.593 40.105,43.447 C40.009,43.768 39.7570000000001,44.02 39.4359999999999,44.116 C38.5809999999999,44.373 38.008,45.137 38.008,46.018 C38.008,46.018 58.008,46.018 58.008,46.018 C58.008,44.364 56.663,43.018 55.008,43.018 C54.421,43.018 53.8499999999999,43.191 53.357,43.517 ZM49.126,44.044 C48.9359999999999,44.044 48.7449999999999,43.99 48.575,43.878 C48.0619999999999,43.538 47.777,43.601 47.4580000000001,43.824 C47.0070000000001,44.143 46.3820000000001,44.034 46.0650000000001,43.582 C45.7470000000001,43.131 45.855,42.507 46.307,42.189 C47.364,41.443 48.529,41.451 49.6780000000001,42.209 C50.1389999999999,42.514 50.2650000000001,43.134 49.961,43.595 C49.769,43.886 49.451,44.044 49.126,44.044 ZM11.7170000000001,42.299 C12.1610000000001,42.627 12.2550000000001,43.254 11.9259999999999,43.697 C11.73,43.962 11.4280000000001,44.103 11.1210000000001,44.103 C10.915,44.103 10.7059999999999,44.039 10.528,43.906 C10.03,43.539 9.74399999999991,43.587 9.41499999999996,43.794 C8.94800000000009,44.089 8.32999999999993,43.947 8.03600000000006,43.479 C7.74199999999996,43.011 7.88400000000001,42.394 8.35100000000011,42.1 C9.11400000000003,41.619 10.319,41.263 11.7170000000001,42.299 ZM27.0070000000001,33.969 C27.559,33.969 28.057,34.466 28.057,35.019 C28.057,35.571 27.559,36.069 27.0070000000001,36.069 C26.4549999999999,36.069 25.9570000000001,35.571 25.9570000000001,35.019 C25.9570000000001,34.466 26.4549999999999,33.969 27.0070000000001,33.969 ZM40.008,32.019 C40.008,32.019 40.008,23.019 40.008,23.019 C40.008,22.467 40.4549999999999,22.019 41.008,22.019 C41.008,22.019 49.008,22.019 49.008,22.019 C49.5599999999999,22.019 50.008,22.467 50.008,23.019 C50.008,23.019 50.008,32.019 50.008,32.019 C50.5599999999999,32.019 51.008,32.467 51.008,33.019 C51.008,33.571 50.5599999999999,34.019 50.008,34.019 C50.008,34.019 49.008,34.019 49.008,34.019 C49.008,34.019 41.008,34.019 41.008,34.019 C41.008,34.019 40.008,34.019 40.008,34.019 C39.4549999999999,34.019 39.008,33.571 39.008,33.019 C39.008,32.467 39.4549999999999,32.019 40.008,32.019 ZM42.008,32.019 C42.008,32.019 48.008,32.019 48.008,32.019 C48.008,32.019 48.008,28.019 48.008,28.019 C48.008,28.019 42.008,28.019 42.008,28.019 C42.008,28.019 42.008,32.019 42.008,32.019 ZM42.008,26.019 C42.008,26.019 48.008,26.019 48.008,26.019 C48.008,26.019 48.008,24.019 48.008,24.019 C48.008,24.019 42.008,24.019 42.008,24.019 C42.008,24.019 42.008,26.019 42.008,26.019 ZM20.0070000000001,34.019 C20.0070000000001,34.019 19.0070000000001,34.019 19.0070000000001,34.019 C19.0070000000001,34.019 11.0070000000001,34.019 11.0070000000001,34.019 C11.0070000000001,34.019 10.0070000000001,34.019 10.0070000000001,34.019 C9.45399999999995,34.019 9.00700000000006,33.571 9.00700000000006,33.019 C9.00700000000006,32.467 9.45399999999995,32.019 10.0070000000001,32.019 C10.0070000000001,32.019 10.0070000000001,23.019 10.0070000000001,23.019 C10.0070000000001,22.467 10.4549999999999,22.019 11.0070000000001,22.019 C11.0070000000001,22.019 19.0070000000001,22.019 19.0070000000001,22.019 C19.559,22.019 20.0070000000001,22.467 20.0070000000001,23.019 C20.0070000000001,23.019 20.0070000000001,32.019 20.0070000000001,32.019 C20.559,32.019 21.0070000000001,32.467 21.0070000000001,33.019 C21.0070000000001,33.571 20.559,34.019 20.0070000000001,34.019 ZM18.0070000000001,24.019 C18.0070000000001,24.019 12.0070000000001,24.019 12.0070000000001,24.019 C12.0070000000001,24.019 12.0070000000001,26.019 12.0070000000001,26.019 C12.0070000000001,26.019 18.0070000000001,26.019 18.0070000000001,26.019 C18.0070000000001,26.019 18.0070000000001,24.019 18.0070000000001,24.019 ZM18.0070000000001,28.019 C18.0070000000001,28.019 12.0070000000001,28.019 12.0070000000001,28.019 C12.0070000000001,28.019 12.0070000000001,32.019 12.0070000000001,32.019 C12.0070000000001,32.019 18.0070000000001,32.019 18.0070000000001,32.019 C18.0070000000001,32.019 18.0070000000001,28.019 18.0070000000001,28.019 Z " fill="rgb( 80, 80, 112 )"/></svg>