<?xml version="1.0" ?><!DOCTYPE svg  PUBLIC '-//W3C//DTD SVG 1.1//EN'  'http://www.w3.org/Graphics/SVG/1.1/DTD/svg11.dtd'><svg baseProfile="full" height="59px" version="1.1" width="41px" xmlns="http://www.w3.org/2000/svg" xmlns:ev="http://www.w3.org/2001/xml-events" xmlns:xlink="http://www.w3.org/1999/xlink"><path d="M39.9939999999999,45.21 C39.809,45.5309999999999 39.473,45.71 39.127,45.71 C38.9580000000001,45.71 38.7860000000001,45.667 38.6279999999999,45.576 C38.6279999999999,45.576 32.431,41.996 32.431,41.996 C31.953,41.72 31.789,41.1079999999999 32.0650000000001,40.63 C32.3409999999999,40.151 32.954,39.987 33.431,40.264 C33.431,40.264 39.6289999999999,43.8440000000001 39.6289999999999,43.8440000000001 C40.107,44.12 40.27,44.732 39.9939999999999,45.21 ZM34,38 C34,38 25.8989999999999,38 25.8989999999999,38 C25.4190000000001,40.832 22.9659999999999,43 20,43 C17.0340000000001,43 14.5809999999999,40.832 14.1010000000001,38 C14.1010000000001,38 6,38 6,38 C4.346,38 3,36.654 3,35 C3,35 3,33.606 3,33.606 C3,33.28 3.0630000000001,32.9640000000001 3.16399999999999,32.6609999999999 C3.17900000000009,32.619 3.19900000000007,32.583 3.21900000000005,32.544 C3.298,32.336 3.37899999999991,32.129 3.50399999999991,31.941 C3.50399999999991,31.941 10.5740000000001,21.336 10.5740000000001,21.336 C11.1320000000001,20.5 12.0650000000001,20 13.0699999999999,20 C13.0699999999999,20 19,20 19,20 C19,20 19,1 19,1 C19,0.44799999999998 19.4480000000001,0 20,0 C20.5519999999999,0 21,0.44799999999998 21,1 C21,1 21,20 21,20 C21,20 26.9300000000001,20 26.9300000000001,20 C27.9349999999999,20 28.8679999999999,20.5 29.4259999999999,21.336 C29.4259999999999,21.336 36.4960000000001,31.941 36.4960000000001,31.941 C36.6210000000001,32.129 36.702,32.337 36.7819999999999,32.545 C36.8009999999999,32.583 36.8209999999999,32.619 36.836,32.659 C36.9369999999999,32.963 37,33.28 37,33.606 C37,33.606 37,35 37,35 C37,36.654 35.654,38 34,38 ZM20,41 C21.8599999999999,41 23.4280000000001,39.723 23.873,38 C23.873,38 16.127,38 16.127,38 C16.5719999999999,39.723 18.1400000000001,41 20,41 ZM27.7619999999999,22.4450000000001 C27.576,22.1660000000001 27.2650000000001,22 26.9300000000001,22 C26.9300000000001,22 13.0699999999999,22 13.0699999999999,22 C12.7349999999999,22 12.424,22.1660000000001 12.2380000000001,22.4450000000001 C12.2380000000001,22.4450000000001 5.86799999999994,32 5.86799999999994,32 C5.86799999999994,32 34.1310000000001,32 34.1310000000001,32 C34.1310000000001,32 27.7619999999999,22.4450000000001 27.7619999999999,22.4450000000001 ZM35,34 C35,34 5,34 5,34 C5,34 5,35 5,35 C5,35.551 5.44900000000007,36 6,36 C6,36 15,36 15,36 C15,36 25,36 25,36 C25,36 34,36 34,36 C34.5509999999999,36 35,35.551 35,35 C35,35 35,34 35,34 ZM8.2639999999999,40.8200000000001 C8.53999999999996,41.298 8.37699999999995,41.91 7.89799999999991,42.186 C7.89799999999991,42.186 1.7349999999999,45.746 1.7349999999999,45.746 C1.57799999999997,45.837 1.40499999999997,45.88 1.2360000000001,45.88 C0.8900000000001,45.88 0.55400000000009,45.701 0.36899999999991,45.38 C0.09300000000007,44.902 0.25600000000009,44.29 0.7349999999999,44.014 C0.7349999999999,44.014 6.89799999999991,40.455 6.89799999999991,40.455 C7.375,40.176 7.98800000000006,40.342 8.2639999999999,40.8200000000001 ZM10.296,47.097 C10.5709999999999,46.619 11.182,46.453 11.662,46.73 C12.1400000000001,47.0069999999999 12.3040000000001,47.6180000000001 12.028,48.097 C12.028,48.097 8.53400000000011,54.151 8.53400000000011,54.151 C8.34899999999993,54.472 8.01299999999992,54.651 7.66699999999992,54.651 C7.49800000000005,54.651 7.32600000000002,54.6079999999999 7.16799999999989,54.518 C6.69000000000005,54.241 6.52600000000007,53.63 6.80199999999991,53.151 C6.80199999999991,53.151 10.296,47.097 10.296,47.097 ZM19.972,49.836 C20.5239999999999,49.836 20.972,50.284 20.972,50.836 C20.972,50.836 20.972,57.732 20.972,57.732 C20.972,58.285 20.5239999999999,58.732 19.972,58.732 C19.4200000000001,58.732 18.972,58.285 18.972,57.732 C18.972,57.732 18.972,50.836 18.972,50.836 C18.972,50.284 19.4200000000001,49.836 19.972,49.836 ZM28.77,46.499 C29.249,46.223 29.8589999999999,46.3869999999999 30.136,46.865 C30.136,46.865 33.6600000000001,52.973 33.6600000000001,52.973 C33.9359999999999,53.451 33.7719999999999,54.063 33.2940000000001,54.3390000000001 C33.136,54.4299999999999 32.9639999999999,54.473 32.7950000000001,54.473 C32.4490000000001,54.473 32.1130000000001,54.293 31.9280000000001,53.973 C31.9280000000001,53.973 28.403,47.865 28.403,47.865 C28.127,47.3869999999999 28.2919999999999,46.775 28.77,46.499 Z " fill="rgb( 80, 80, 112 )"/></svg>