<?xml version="1.0" ?><!DOCTYPE svg  PUBLIC '-//W3C//DTD SVG 1.1//EN'  'http://www.w3.org/Graphics/SVG/1.1/DTD/svg11.dtd'><svg baseProfile="full" height="36px" version="1.1" width="60px" xmlns="http://www.w3.org/2000/svg" xmlns:ev="http://www.w3.org/2001/xml-events" xmlns:xlink="http://www.w3.org/1999/xlink"><path d="M57,34 C57,34 56,34 56,34 C56,34 56,35 56,35 C56,35.552 55.5519999999999,36 55,36 C54.4480000000001,36 54,35.552 54,35 C54,35 54,34 54,34 C54,34 51,34 51,34 C51,34 9,34 9,34 C9,34 6,34 6,34 C6,34 6,35 6,35 C6,35.552 5.55199999999991,36 5,36 C4.44800000000009,36 4,35.552 4,35 C4,35 4,34 4,34 C4,34 3,34 3,34 C1.346,34 0,32.654 0,31 C0,31 0,11 0,11 C0,8.58600000000001 1.721,6.56599999999997 4,6.101 C4,6.101 4,5 4,5 C4,2.24299999999999 6.24299999999994,0 9,0 C9,0 27.7639999999999,0 27.7639999999999,0 C28.636,0 29.4400000000001,0.36900000000003 30,0.99799999999999 C30.5599999999999,0.36900000000003 31.364,0 32.2360000000001,0 C32.2360000000001,0 51,0 51,0 C53.7570000000001,0 56,2.24299999999999 56,5 C56,5 56,6.101 56,6.101 C58.279,6.56599999999997 60,8.58600000000001 60,11 C60,11 60,31 60,31 C60,32.654 58.654,34 57,34 ZM10,32 C10,32 50,32 50,32 C50,32 50,24 50,24 C50,24 10,24 10,24 C10,24 10,32 10,32 ZM2,11 C2,11 2,31 2,31 C2,31.551 2.44900000000007,32 3,32 C3,32 8,32 8,32 C8,32 8,23 8,23 C8,23 8,19 8,19 C8,19 8,11 8,11 C8,9.346 6.654,8 5,8 C3.346,8 2,9.346 2,11 ZM29,3.23599999999999 C29,3.23599999999999 28.6579999999999,2.553 28.6579999999999,2.553 C28.4880000000001,2.21199999999999 28.145,2 27.7639999999999,2 C27.7639999999999,2 9,2 9,2 C7.346,2 6,3.346 6,5 C6,5 6,6.101 6,6.101 C6.00099999999998,6.101 6.00199999999995,6.101 6.00299999999993,6.101 C6.01999999999998,6.10500000000002 6.03500000000008,6.11200000000002 6.05199999999991,6.11599999999999 C6.34099999999989,6.178 6.61999999999989,6.26600000000002 6.8889999999999,6.37599999999998 C6.98299999999995,6.41500000000002 7.06899999999996,6.46699999999998 7.16000000000008,6.51100000000002 C7.34400000000005,6.60000000000002 7.52500000000009,6.69200000000001 7.69599999999991,6.80200000000002 C7.79500000000007,6.86599999999999 7.88499999999999,6.93799999999999 7.97800000000007,7.00799999999998 C8.12799999999993,7.12 8.27299999999991,7.23599999999999 8.41000000000008,7.36399999999998 C8.49800000000005,7.447 8.5809999999999,7.53399999999999 8.66300000000001,7.62299999999999 C8.78800000000001,7.75799999999998 8.90300000000002,7.899 9.01299999999992,8.04599999999999 C9.08500000000004,8.14499999999998 9.15499999999997,8.24200000000002 9.22000000000003,8.346 C9.32099999999991,8.50400000000002 9.40699999999993,8.67000000000002 9.48900000000003,8.84100000000001 C9.54099999999994,8.947 9.59500000000003,9.05000000000001 9.6389999999999,9.16000000000003 C9.71499999999992,9.35199999999998 9.77099999999996,9.55200000000002 9.82400000000007,9.755 C9.84999999999991,9.85399999999998 9.88400000000001,9.94900000000001 9.904,10.05 C9.96399999999994,10.358 10,10.675 10,11 C10,11 10,18 10,18 C10,18 29,18 29,18 C29,18 29,3.23599999999999 29,3.23599999999999 ZM10,20 C10,20 10,22 10,22 C10,22 50,22 50,22 C50,22 50,20 50,20 C50,20 10,20 10,20 ZM54,5 C54,3.346 52.654,2 51,2 C51,2 32.2360000000001,2 32.2360000000001,2 C31.855,2 31.5119999999999,2.21199999999999 31.3420000000001,2.553 C31.3420000000001,2.553 31,3.23599999999999 31,3.23599999999999 C31,3.23599999999999 31,18 31,18 C31,18 50,18 50,18 C50,18 50,11 50,11 C50,10.675 50.0360000000001,10.358 50.096,10.05 C50.116,9.94900000000001 50.1500000000001,9.85399999999998 50.1759999999999,9.755 C50.229,9.55200000000002 50.2850000000001,9.35199999999998 50.3610000000001,9.16000000000003 C50.405,9.05000000000001 50.4590000000001,8.947 50.511,8.83999999999997 C50.5930000000001,8.67000000000002 50.6790000000001,8.50400000000002 50.78,8.346 C50.845,8.24200000000002 50.915,8.14400000000001 50.9870000000001,8.04599999999999 C51.097,7.899 51.212,7.75799999999998 51.336,7.62299999999999 C51.4190000000001,7.53399999999999 51.502,7.447 51.5909999999999,7.36399999999998 C51.7270000000001,7.23599999999999 51.8720000000001,7.12 52.021,7.00799999999998 C52.115,6.93799999999999 52.2049999999999,6.86599999999999 52.3040000000001,6.80200000000002 C52.4739999999999,6.69200000000001 52.655,6.60000000000002 52.8389999999999,6.512 C52.9300000000001,6.46699999999998 53.0170000000001,6.41500000000002 53.1120000000001,6.37599999999998 C53.3789999999999,6.267 53.6559999999999,6.18000000000001 53.944,6.11700000000002 C53.962,6.113 53.979,6.10500000000002 53.998,6.101 C53.998,6.101 53.999,6.101 54,6.101 C54,6.101 54,5 54,5 ZM58,11 C58,9.346 56.654,8 55,8 C53.346,8 52,9.346 52,11 C52,11 52,19 52,19 C52,19 52,23 52,23 C52,23 52,32 52,32 C52,32 57,32 57,32 C57.5509999999999,32 58,31.551 58,31 C58,31 58,11 58,11 Z " fill="rgb( 80, 80, 112 )"/></svg>