<?xml version="1.0" ?><!DOCTYPE svg  PUBLIC '-//W3C//DTD SVG 1.1//EN'  'http://www.w3.org/Graphics/SVG/1.1/DTD/svg11.dtd'><svg baseProfile="full" height="60px" version="1.1" width="50px" xmlns="http://www.w3.org/2000/svg" xmlns:ev="http://www.w3.org/2001/xml-events" xmlns:xlink="http://www.w3.org/1999/xlink"><path d="M49,60 C48.4480000000001,60 48,59.552 48,59 C48,59 48,58 48,58 C48,58 2,58 2,58 C2,58 2,59 2,59 C2,59.552 1.55199999999991,60 1,60 C0.44800000000009,60 0,59.552 0,59 C0,59 0,57 0,57 C0,57 0,3 0,3 C0,1.346 1.346,0 3,0 C3,0 47,0 47,0 C48.654,0 50,1.346 50,3 C50,3 50,57 50,57 C50,57 50,59 50,59 C50,59.552 49.5519999999999,60 49,60 ZM2,3 C2,3 2,56 2,56 C2,56 24,56 24,56 C24,56 24,2 24,2 C24,2 3,2 3,2 C2.44900000000007,2 2,2.44900000000001 2,3 ZM48,3 C48,2.44900000000001 47.5509999999999,2 47,2 C47,2 26,2 26,2 C26,2 26,56 26,56 C26,56 48,56 48,56 C48,56 48,3 48,3 ZM31,24 C31.5519999999999,24 32,24.448 32,25 C32,25 32,29 32,29 C32,29.552 31.5519999999999,30 31,30 C30.4480000000001,30 30,29.552 30,29 C30,29 30,25 30,25 C30,24.448 30.4480000000001,24 31,24 ZM19,30 C18.4480000000001,30 18,29.552 18,29 C18,29 18,25 18,25 C18,24.448 18.4480000000001,24 19,24 C19.5519999999999,24 20,24.448 20,25 C20,25 20,29 20,29 C20,29.552 19.5519999999999,30 19,30 Z " fill="rgb( 80, 80, 112 )"/></svg>