<?xml version="1.0" ?><!DOCTYPE svg  PUBLIC '-//W3C//DTD SVG 1.1//EN'  'http://www.w3.org/Graphics/SVG/1.1/DTD/svg11.dtd'><svg baseProfile="full" height="38px" version="1.1" width="58px" xmlns="http://www.w3.org/2000/svg" xmlns:ev="http://www.w3.org/2001/xml-events" xmlns:xlink="http://www.w3.org/1999/xlink"><path d="M57,2 C57,2 56,2 56,2 C56,2 56,5 56,5 C56,5 56,37 56,37 C56,37.552 55.552,38 55,38 C55,38 51,38 51,38 C50.448,38 50,37.552 50,37 C50,37 50,24 50,24 C50,24 8,24 8,24 C8,24 8,37 8,37 C8,37.552 7.55200000000002,38 7,38 C7,38 3,38 3,38 C2.44799999999998,38 2,37.552 2,37 C2,37 2,5 2,5 C2,5 2,2 2,2 C2,2 1,2 1,2 C0.44799999999998,2 0,1.55200000000002 0,1 C0,0.44799999999998 0.44799999999998,0 1,0 C1,0 3,0 3,0 C3,0 55,0 55,0 C55,0 57,0 57,0 C57.552,0 58,0.44799999999998 58,1 C58,1.55200000000002 57.552,2 57,2 ZM52,36 C52,36 54,36 54,36 C54,36 54,6 54,6 C54,6 52,6 52,6 C52,6 52,36 52,36 ZM8,22 C8,22 50,22 50,22 C50,22 50,6 50,6 C50,6 8,6 8,6 C8,6 8,22 8,22 ZM4,36 C4,36 6,36 6,36 C6,36 6,6 6,6 C6,6 4,6 4,6 C4,6 4,36 4,36 ZM54,2 C54,2 4,2 4,2 C4,2 4,4 4,4 C4,4 7,4 7,4 C7,4 51,4 51,4 C51,4 54,4 54,4 C54,4 54,2 54,2 Z " fill="rgb( 80, 80, 112 )"/></svg>