<?xml version="1.0" encoding="utf-8"?>
<!-- Generator: Adobe Illustrator 17.0.0, SVG Export Plug-In . SVG Version: 6.00 Build 0)  -->
<!DOCTYPE svg PUBLIC "-//W3C//DTD SVG 1.1//EN" "http://www.w3.org/Graphics/SVG/1.1/DTD/svg11.dtd">
<svg version="1.1"
	 id="svg2" xmlns:dc="http://purl.org/dc/elements/1.1/" xmlns:cc="http://creativecommons.org/ns#" xmlns:sodipodi="http://sodipodi.sourceforge.net/DTD/sodipodi-0.dtd" xmlns:inkscape="http://www.inkscape.org/namespaces/inkscape" xmlns:svg="http://www.w3.org/2000/svg" xmlns:rdf="http://www.w3.org/1999/02/22-rdf-syntax-ns#"
	 xmlns="http://www.w3.org/2000/svg" xmlns:xlink="http://www.w3.org/1999/xlink" x="0px" y="0px" width="500px" height="500px"
	 viewBox="0 0 500 500" enable-background="new 0 0 500 500" xml:space="preserve">
<g id="layer1" transform="translate(0,-552.36218)">
	<path id="rect2995" fill="#FFFFFF" d="M50,552.362c-27.7,0-50,22.3-50,50v400c0,27.7,22.3,50,50,50h175.188V828.393h-44.281
		v-79.188h44.281v-51.219c0-36.676,17.435-93.969,94-93.969l68.969,0.25v76.844h-50.094c-8.16,0-19.75,4.083-19.75,21.562v46.531
		h70.969l-8.125,79.188h-62.844v223.969H450c27.7,0,50-22.3,50-50v-400c0-27.7-22.3-50-50-50H50z"/>
</g>
</svg>
