<?xml version="1.0" encoding="utf-8"?>
<!-- Generator: Adobe Illustrator 17.0.0, SVG Export Plug-In . SVG Version: 6.00 Build 0)  -->
<!DOCTYPE svg PUBLIC "-//W3C//DTD SVG 1.1//EN" "http://www.w3.org/Graphics/SVG/1.1/DTD/svg11.dtd">
<svg version="1.1" xmlns="http://www.w3.org/2000/svg" xmlns:xlink="http://www.w3.org/1999/xlink" x="0px" y="0px"
	 width="411.358px" height="50.093px" viewBox="0 0 411.358 50.093" enable-background="new 0 0 411.358 50.093"
	 xml:space="preserve">
<g id="Layer_2" display="none">
</g>
<g id="Layer_5" display="none">
	<path display="inline" fill="#E7C369" d="M193.667,34.942c-3.394-3.65-1.925-11.015-1.667-15.667
		c0.344-6.181-0.333-30.559-0.333-36.798c0-5.551,0-11.101,0-16.652c0-2.794-1.088-12.829,2.282-12.275
		C194.471-36.205,194-25.776,194-15.5c0,5.334,0,28.775,0,34.109c0,4.709,0.937,12.04-0.666,16.333"/>
	<path display="inline" fill="#E7C369" d="M204.25,0.25c3.127-0.602,0.736,6.394,0.444,7.944c-0.241,1.281-0.818,8.901-2.443,8.823
		c-1.164-0.056,0.509-16.504,2.499-16.767"/>
	<path display="inline" fill="#E7C369" d="M205.25-4.75c3.39,0.907,10.032-39.821,9.417-42.113
		C214.323-44.261,202.774-5.852,206-4.5"/>
	<path display="inline" fill="#E7C369" d="M203.596,37.713c0.023-2.206,1.257-3.994,2.116-5.925
		c1.103-2.478,8.14-23.561,9.177-25.986c1.825-4.267,3.765-8.321,5.196-12.759c2.538-7.866,6.311-15.104,8.498-23.18
		c0.885-3.269,2.778-6.18,4.252-9.183c1.708-3.481,1.536-6.145,5.454-7.152c-1.956,2.684-3.64,7.01-4.937,10.28
		c-1.451,3.662-2.926,7.388-4.239,11.037c-2.541,7.054-5.307,13.906-8.025,20.894c-1.68,4.316-3.752,8.74-5.415,12.95
		c-0.9,2.282-8.335,22.84-8.78,25.236c-0.318,1.702-1.11,5.704-3.533,3.548"/>
	<path display="inline" fill="#E7C369" d="M220.75,23.5c0.917-4.916,9.583-9.583,6.493-14.537c-2.068,2.089-3.346,4.186-4.793,7.086
		c-0.515,1.034-5.102,8.093-1.45,7.7"/>
	<path display="inline" fill="#E7C369" d="M230,4.25c2.854,0.124,2.976-2.368,3.938-4.243c0.993-1.932,14.152-25.062,13.562-27.507
		c-1.222,1.523-13.728,23.511-14.75,25.237c-1.203,2.031-1.297,4.966-3,6.513"/>
	<path display="inline" fill="#E7C369" d="M247.5-35c0.34,1.298,0.592,2.783,0.537,4.211c4.726-0.083,6.936-13.193,6.738-16.075
		c-0.853,1.556-5.681,11.592-7.025,12.613"/>
	<path display="inline" fill="#E7C369" d="M211.405,49.416c-1.458-3.252,0.827-5.36,2.352-8.198
		c1.583-2.945,21.245-24.556,23.217-26.888c1.499-1.769,3.225-5.304,4.861-7.6c1.76-2.466,3.221-4.722,4.887-7.181
		c7.214-10.66,14.557-21.238,23.206-30.43c4.927-5.238,10.441-8.389,12.979-15.648c6.97-2.228-1.912,7.375-3.13,8.915
		c-3.566,4.512-7.413,8.47-10.988,13.316c-7.296,9.894-15.465,18.868-22.395,29.047c-2.853,4.194-6.046,8.026-9.183,12.017
		c-2.622,3.341-21.837,31.296-25.748,32.95c-0.097-0.348-0.003-0.633-0.059-0.981"/>
	<path display="inline" fill="#E7C369" d="M234.333,33.834c0.203-1.479,2.376-2.014,3.542-2.704c1.144-0.677,1.96-1.694,2.958-2.463
		c1.51-1.163,4.09-4.414,6.309-3.975c0.43,2.137-1.733,2.269-3.099,3.017c-1.121,0.613-2.477,1.733-3.376,2.613
		c-1.092,1.068-1.811,3.006-3.032,3.812c-0.851,0.561-4.851,0.87-3.302-0.8"/>
	<path display="inline" fill="#E7C369" d="M250.833,22.334c0-1.851-0.332-3.228,1.204-4.462c1.204-0.968,2.793-1.615,3.824-2.676
		c1.028-0.468,53.702-39.768,55.006-39.361c2.453,0.765-0.206,2.831-1.212,3.62C307.27-18.676,252.729,20.012,250.833,22.334"/>
	<path display="inline" fill="#E7C369" d="M208.955,59.872c1.429-0.833,2.824-2.602,4.105-3.704
		c1.076-0.927,1.857-1.674,3.113-2.403c1.467-0.85,34.31-19.527,35.861-20.18c3.045-1.282,5.882-2.907,8.328-4.97
		c2.595-2.189,4.58-4.268,7.543-6.155c2.961-1.885,5.743-2.927,8.996-4.127c5.183-1.912,9.238-5.892,14.037-8.694
		c2.934-1.712,6.223-3.059,9.046-4.97c2.418-1.636,4.702-3.45,7.037-5.135c0.856-0.619,3.164-2.868,4.383-2.578
		c1.456,0.347,1.061,2.466,0.36,3.417c-1.776,2.413-5.821,1.015-7.484,3.302c-1.552,0.432-3.084,2.482-4.561,3.363
		c-1.322,0.788-2.812,1.683-4.151,2.375c-3.056,1.579-6.308,3.196-9.218,4.952c-2.539,1.532-4.706,3.634-7.108,5.14
		c-2.798,1.754-4.964,5.015-8.252,6.124c-1.397,0.471-2.802,0.226-4.083,0.868c-1.457,0.731-3.334,2.222-4.611,3.381
		c-2.301,2.086-4.782,3.404-7.624,4.566c-2.566,1.05-35.896,20.832-38.464,22.266c-1.662,0.929-5.587,5.145-7.221,4.832
		c-0.321-0.518-0.493-1.068-0.503-1.645c0.317,0.024,0.54-0.177,0.799-0.194"/>
	<path display="inline" fill="#E7C369" d="M244,49.75c4.423-2.658,9.927-4.5,15.212-4.212c0.175,1.611-6.656,2.713-8.268,3.213
		c-1.292,0.4-7.539,3.833-7.155,0.787c0.241-0.062,0.48,0.021,0.712-0.038"/>
	<path display="inline" fill="#E7C369" d="M264,44.75c-0.145-0.565-0.003-1.395,0.038-1.962
		c3.259-0.059,46.226-14.988,47.839-11.421c-2.112,1.172-39.702,10.467-41.877,11.322c-1.744,0.686-4.497,2.914-6,1.811"/>
	<path display="inline" fill="#E7C369" d="M246.5,58.5c8.626-0.026,15.932-4.221,24.682-4.5c4.077-0.13,8.398-2.001,12.344-2.763
		c2.512-0.485,5.18-0.106,7.737-0.237c2.389-0.122,18.229-3.416,20.3-3.707c0.059,1.133,0.056,2.306,0,3.436
		c-9.122,0.462-31.546,4.357-40.568,5.271c-4.234,0.429-8.195,2.057-12.288,2.694c-3.995,0.623-8.101,1.736-12.174,1.512
		c0.161-0.485,0.039-1.179,0.218-1.707"/>
	<path display="inline" fill="#E7C369" d="M245.333,70.667c0.491-0.573,1.186-1.762,1.834-2.004c0.884-0.33,2.376,0.059,3.333,0.012
		c2.176-0.106,4.171,0.144,6.308,0.183c0.098,0.509,0.153,1.123,0.167,1.616c-2.033,0.115-4.1-0.077-6.141,0.025
		c-1.688,0.085-3.656,0.477-5.334,0"/>
	<path display="inline" fill="#E7C369" d="M259.167,68.5c0.002,0.658-0.008,1.325,0.025,1.975c2.807,0.143,5.582-0.186,8.345-0.308
		c3.016-0.134,40.332-0.202,43.23-0.354c-1.001-3.263-39.815-1.447-42.434-1.313c-3.141,0.161-6.179,0-9.333,0"/>
	<path display="inline" fill="#E7C369" d="M246.833,78c-0.029,0.147-0.023,0.291,0.02,0.434c6.158,2.016,13.102,1.738,19.481,3.021
		c8.333,1.676,16.735,2.242,25.134,3.54c4.359,0.674,8.797,1.077,13.199,1.671c1.299,0.176,4.267-0.203,5.332,0.497
		c0.915,0.601,1.108,2.703,0.047,3.345c-1.02,0.617-3.014-0.571-4.049-0.845c-1.446-0.381-3.081-0.407-4.667-0.496
		c-3.656-0.205-7.261-1.052-10.901-1.338c-7.311-0.575-14.104-1.932-21.233-3.338c-3.012-0.594-5.962-1.29-9.033-2.204
		c-2.834-0.843-5.909-0.62-8.995-0.62c-0.912,0-3.104,0.4-3.842-0.168C246.554,80.906,246.833,78.967,246.833,78"/>
	<path display="inline" fill="#E7C369" d="M244.333,88.5c0.469-1.551,1.868-1.219,3-0.791c1.438,0.543,3.02,0.976,4.338,1.75
		c0.944,0.555,2.382,1.276,3.153,1.908c0.767,0.626,1.992,2.8,0.642,3.607c-1.021,0.611-2.234-1.03-2.93-1.475
		c-1.044-0.667-2.393-1.084-3.495-1.667c-1.152-0.608-2.291-1.158-3.466-1.796c-0.751-0.408-2.54-1.727-0.575-2.037"/>
	<path display="inline" fill="#E7C369" d="M262.333,93.167c2.532,0.854,4.535,1.975,7.176,2.661
		c1.583,0.412,43.318,18.149,42.728,20.59c-1.005-0.229-1.92-1.29-2.941-1.687c-1.28-0.497-39.206-16.354-40.629-16.564
		c-2.206-0.327-4.147-2.241-6.476-3.028c-0.305-0.618-0.371-1.351,0.309-1.639"/>
	<path display="inline" fill="#E7C369" d="M240.5,96c2.911,3.243,8.678,5.001,12.5,7.048c4.192,2.245,49.363,31.807,53.825,33.296
		c1.646,0.549,3.948,0.745,4.561,2.695c0.853,2.716-1.223,2.49-3.061,2.111c-3.696-0.763-47.841-30.102-50.812-32.462
		c-2.988-2.375-7.285-4.377-10.757-6.126c-1.677-0.845-3.345-1.592-5.006-2.618c-1.075-0.664-3.759-3.31-1-3.694"/>
	<path display="inline" fill="#E7C369" d="M235.5,103.5c1.25,1.884,3.094,3.093,4.806,4.443c1.982,1.565,3.801,3.719,5.926,5.219
		c-0.855-1.688-4.862-1.975-6.543-3.411c-1.257-1.074-3.14-3.654-4.899-3.788c0.087-0.713,0.308-1.578,0.711-2.213"/>
	<path display="inline" fill="#E7C369" d="M248.25,116.5c3.054-0.264,5.919,1.725,7.938,3.793
		c0.853,0.875,56.609,65.675,55.397,66.832c-0.585,0.559-56.606-63.846-57.585-64.369c-1.284-0.687-3.324-1.278-4.248-2.575
		C248.972,119.088,249.126,117.398,248.25,116.5"/>
	<path display="inline" fill="#E7C369" d="M228.048,111.25c1.721,1.338,2.968,1.505,4.459,3.397
		c1.455,1.846,2.881,3.817,4.389,5.655c3.339,4.067,6.337,8.373,9.926,12.335c3.452,3.812,6.579,8.443,9.691,12.651
		c1.382,1.867,2.982,3.706,4.461,5.429c1.687,1.966,3.392,4.921,5.487,6.376c0.341,2.588,4.364,5.256,6.116,7.172
		c2.082,2.275,3.979,4.969,5.789,7.243c3.363,4.229,6.997,8.033,9.884,12.627c1.222,1.946,1.594,4.219-1.22,2.448
		c-0.955-0.6-1.446-2.589-2.281-3.425c-0.98-0.982-1.997-1.401-3.025-2.262c-3.38-2.829-5.785-7.137-8.776-10.676
		c-6.641-7.862-12.671-17.085-19.53-24.251c-4.332-4.525-7.877-10.034-12.128-14.749c-3.509-3.892-5.824-8.188-9.38-12.065
		c-1.394-1.518-2.139-2.437-3.037-4.223c-0.425-0.846-1.903-4.267-0.521-3.08"/>
	<path display="inline" fill="#E7C369" d="M220.75,116.5c2.605,0.838,2.785,3.893,3.493,6.019c0.6,1.805,2.188,3.467,2.219,5.443
		c-3.411,0.503-6.309-8.75-6.175-11.423c0.443-0.13,0.598,0.043,0.963,0.211"/>
	<path display="inline" fill="#E7C369" d="M228.75,132.75c1.89-2.09,4.11,3.717,5.182,5.306
		c1.243,1.845,29.653,47.414,28.039,48.814c-2.701,2.342-29.447-45.139-30.289-46.863c-0.635-1.3-3.795-7.44-1.932-8.007"/>
	<path display="inline" fill="#E7C369" d="M211.75,121.25c3.646-0.632,4.426,9.22,5,11.694c0.946,4.077,2.142,8.066,3.993,11.8
		c1.841,3.714,3.21,7.888,4.7,11.817c0.837,2.207,1.534,4.503,2.501,6.694c0.645,1.463,10.535,22.535,10.33,24.031
		c-0.009,0.063,0.129,0.857,0.146,1.019c-2.275,1.219-2.186-1.74-2.768-3.158c-0.736-1.793-9.788-21.403-10.652-23.196
		c-1.067-2.215-2.27-3.793-2.75-6.201c-0.414-2.073-0.923-3.885-1.562-5.993c-2.375-7.849-5.177-15.707-8.258-23.188
		c-0.487-1.183-2.472-5.216-0.181-5.319"/>
	<path display="inline" fill="#E7C369" d="M202,123.5c0.417-0.096,0.993-0.006,1.406,0.038c0.623,4.187,1.789,8.632,1.556,12.924
		c-0.377,0.075-0.798,0.078-1.174-0.001c-0.229-3.784-2.788-9.722-1.288-13.211"/>
	<path display="inline" fill="#E7C369" d="M205.5,140.75c3.281-0.628,2.156,5.274,2.25,7.244c0.149,3.133,4.851,36.091,4.587,39.25
		c-0.457,0.043-0.755-0.047-1.169-0.249c-0.049-3.403-8.341-43.95-5.418-46.245"/>
	<path display="inline" fill="#E7C369" d="M192.5,102.537c2.634,3.111,1.174,9.671,1,13.568c-0.231,5.159-0.25,29.906-0.25,35.144
		c0,5.428,0.75,10.495,0.75,15.987c0,5.171,0,10.342,0,15.513c0,1.885,0.681,4.826-2.213,3.967
		c-0.48-9.754-0.68-19.985-0.287-29.716c0.182-4.526,0.238-28.401,0.25-32.964c0.006-2.282-0.358-4.528-0.256-6.757
		c0.098-2.12,1.023-4.092,1.019-6.243c-0.007-3.045-0.456-5.698-0.013-8.75"/>
	<path display="inline" fill="#E7C369" d="M183.75,123.25c0,3.004,0.059,5.633-0.806,8.507c-0.748,2.487-0.665,5.243-1.488,7.705
		c-3.452,0.955-0.732-6.321-0.456-7.712c0.29-1.468,0.288-2.858,0.744-4.237c0.503-1.519,1.78-2.58,1.756-4.263"/>
	<path display="inline" fill="#E7C369" d="M179,144.25c0.568-0.142,1.391-0.003,1.961,0.038c-0.124,1.989-1.39,4.31-1.712,6.462
		c-0.269,1.793-1.766,36.674-4.596,36.12c-0.122-2.401,2.7-34.824,3.152-37.064c0.354-1.757,0.102-4.461,1.444-5.806"/>
	<path display="inline" fill="#E7C369" d="M169.93,136.411c0.983-4.086,2.556-8.102,4.073-11.813
		c0.385-0.942,1.604-5.17-0.808-3.808c-1.087,0.614-1.414,4.604-1.891,5.731c-1.601,3.773-3.783,7.749-4.861,11.766
		c-1.061,3.95-2.158,7.948-3.661,11.86c-3.353,8.73-7.184,16.949-9.865,25.935c-0.636,2.13-0.947,4.353-1.77,6.439
		c-0.272,0.689-2.706,5.508,0.004,4.538c0.979-0.351,1.767-5.219,2.152-6.25c0.778-2.084,1.907-4.441,2.477-6.862
		c1.611-6.848,5.474-12.54,7.733-18.96c2.289-6.506,3.568-13.269,6.646-19.298"/>
	<path display="inline" fill="#E7C369" d="M163.5,124c-1.138,1.503-2.762,3.386-4.2,4.737c-0.417,0.392-1.35,2.877-1.817,0.823
		c-0.224-0.979,0.91-2.017,1.456-2.823c2.491-3.68,4.734-7.13,6.824-11.162c0.211,2.151,0.413,7.569-2.22,8.218
		c-0.021,0.458-0.253,0.485-0.542,0.707"/>
	<path display="inline" fill="#E7C369" d="M156,135.75c-0.394-0.164-1.114-0.145-1.518-0.218
		c-0.16,2.228-30.462,45.145-31.683,47.081c-0.666,1.058-3.512,6.476-1.037,5.943c3.086-0.664,33.285-50.652,34.212-53.019
		c-0.238-0.061-0.503,0.029-0.725-0.038"/>
	<path display="inline" fill="#E7C369" d="M148,127c0.259-2.086,3.183-5.257,4.306-7.001c1.568-2.436,4.276-4.782,6.651-6.292
		c1.131-3.652-1.742-1.253-2.775-0.014c-1.149,1.379-2.525,2.378-3.674,3.995c-2.287,3.218-4.596,7.026-6.952,10.118
		c-1.151,1.511-2.849,2.303-4.262,3.762c-1.387,1.433-32.074,43.059-33.242,44.605c-1.247,1.651-2.896,2.864-4.146,4.861
		c-0.693,1.107-1.153,2.207-2.068,3.145c-0.633,0.648-2.337,1.348-2.567,2.244c-0.075,0.29-0.128,0.422-0.132,0.763
		c1.86,0.948,8.55-8.245,10.018-9.945c3.175-3.675,36.21-47.683,39.094-51.241"/>
	<path display="inline" fill="#E7C369" d="M135,117.25c-2.141,3.447-55.586,33.888-58.039,37.657
		c3.984,3.571,59.057-33.012,58.751-37.368c-0.766-0.284-0.456,0.177-0.713,0.461"/>
	<path display="inline" fill="#E7C369" d="M138.75,114c0.386-1.445,4.423-4.195,5.682-5.305c1.482-1.307,4.76-4.161,6.774-3.901
		c1.722,2.788-10.381,7.468-10.494,10.918c-1.006,0.022-2.006,0.306-2.932,0.506c-0.166-1.119,0.393-2.029,1.219-2.718"/>
	<path display="inline" fill="#E7C369" d="M146.25,97.697c-0.958,1.925-3.508,2.868-5.098,4.163
		c-2.13,1.733-4.278,3.354-6.865,4.667c-4.586,2.328-8.857,5.078-12.917,8.144c-3.701,2.794-8.763,3.088-12.613,5.594
		c-4.221,2.747-8.528,5.028-12.896,7.437c-4.906,2.707-9.367,5.698-14.061,8.606c-1.437,0.89-3.662,3.944-4.868,1.809
		c-1.722-3.05,2.888-2.347,4.366-2.916c3.768-1.448,7.725-5.018,11.054-7.26c3.759-2.533,8.374-4.104,12.197-6.559
		c3.369-2.164,6.419-4.916,9.59-7.461c3.042-2.44,6.983-3.515,10.323-5.35c3.568-1.96,7.272-4.024,10.82-5.653
		c2.19-1.006,3.626-1.733,5.401-3.314c0.997-0.889,2.809-2.766,4.16-2.605c0.382,0.046,0.763-0.059,1.137,0.036
		c0.156,0.556,0.011,1.022-0.199,1.359"/>
	<path display="inline" fill="#E7C369" d="M121.5,94.75c0.254,0.918,0.37,1.987,0.212,2.962c-1.775-0.1-45.896,15.123-45.212,11.737
		c0.286-1.415,4.733-2.085,5.818-2.237c2.528-0.355,37.17-11.364,39.432-12.212"/>
	<path display="inline" fill="#E7C369" d="M141.25,88.5c-2.724,1.037-5.21,1.162-8.001,1.933c-1.216,0.336-3.158,0.869-4.249,1.317
		c-1.315,0.54-2.574,0.651-1.457,2.706c3.086,0.171,10.438-3.843,12.381-1.976c0.795-1.426,3.472-2.993,0.825-4.231"/>
	<path display="inline" fill="#E7C369" d="M139.75,81c-1.917,1.646-4.652,0.604-7.026,0.987c-2.153,0.348-4.716,0.988-6.993,1.507
		c-4.558,1.038-9.496,1.886-13.706,2.963c-2.503,0.641-4.358,1.707-7.025,1.793c-2.32,0.075-15.006,1.967-17.306,2.189
		c-2.604,0.251-5.158,1.177-7.824,1.444c-2.708,0.271-4.333-1.484-1.182-2.25c1.825-0.443,4.197,0.092,6.074,0
		c2.204-0.107,14.4-2.983,16.47-3.396c2.577-0.513,4.852-0.691,7.27-1.486c1.81-0.596,3.863-0.981,5.727-1.263
		c4.455-0.674,9.217-0.837,13.515-1.963C130.28,80.86,131.528,80,134.318,80c1.996,0,3.988-0.052,5.9-0.206
		c-0.148,0.486-0.563,1.134-0.968,1.456"/>
	<path display="inline" fill="#E7C369" d="M125,69c1.348-1.205,5.318-0.154,7.268-0.251c2.104-0.104,4.958-0.856,6.939,0.295
		c0.083,0.373,0.081,0.792,0.006,1.169c-4.329,0.214-8.54,0.752-12.832-0.197c-3.932-0.87-36.189-1.631-40.286-1.631
		c-1.481,0-10.21-0.878-9.5,1.756c0.569,2.111,44.791-0.05,47.368-0.178c0.277-0.748-0.15-0.471-0.461-0.713"/>
	<path display="inline" fill="#E7C369" d="M76.5,49.75c3.815-1.378,8.872,0.751,12.744,1.493c4.455,0.854,8.859,1.029,13.475,1.257
		c4.774,0.237,9.483,1.293,14.21,2.194c4.458,0.85,50.765,9.697,55.133,10.401c1.894,0.306,3.778,0.458,5.618,0.251
		c2.415-0.272,4.145-1.068,3.652,2.462c-1.846,0.396-4.156-1.101-6.096-1.212c-2.51-0.145-4.887-0.118-7.346-0.486
		c-4.981-0.746-52.442-8.282-57.375-9.166c-5.746-1.029-10.978-2.623-16.864-2.694c-4.974-0.06-9.76-0.511-14.46-1.938
		c-1.288-0.392-3.814-1.313-1.955-2.812"/>
	<path display="inline" fill="#E7C369" d="M130.25,45.5c2.309-0.323,32.532,12.091,34.417,13.133
		c0.771,0.427,6.664,2.822,4.212,4.187c-1.322,0.736-5.187-2.577-6.448-3.157C161.606,59.284,127.218,47.091,130.25,45.5"/>
	<path display="inline" fill="#E7C369" d="M122.25,46.25c1.019-2.228-34.653-18.946-37.07-19.321
		c-1.418-0.219-2.953,0.898-4.513,0.518c-1.441-0.352-2.344-1.649-3.706-1.975C77.787,30.45,119.35,42.611,122,46.25"/>
	<path display="inline" fill="#E7C369" d="M131,32.5c-1.714-0.886-3.139-2.003-4.931-3.068
		c-1.598-0.951-43.205-25.828-44.741-26.562c-1.287-0.617-5.1-0.862-4.754,1.247c0.222,1.35,44.158,25.529,45.425,26.196
		c6.88,3.616,43.623,25.335,50.379,28.553c1.06,0.505,2.008,1.08,2.831,1.914c0.847-0.308,0.98-0.502,0.95-1.426
		c-2.522-0.683-5.071-2.897-7.395-4.099c-3.039-1.571-35.863-20.639-38.265-22.754"/>
	<path display="inline" fill="#E7C369" d="M142,26.5c2.701,2.246,27.423,20.955,30.657,23.32c-0.403,0.693-1.085,1.375-1.657,1.933
		c-0.442-2.562-26.441-22.048-28.958-22.795c-0.538-0.629-0.898-1.387-1.004-2.17c0.247-0.064,0.469,0.009,0.711-0.037"/>
	<path display="inline" fill="#E7C369" d="M83.051-22.14c-1.077-0.452-6.118-6.192-6.498-3c-0.202,1.691,53.42,42.982,54.522,43.834
		c1.281,0.989,5.403,6.222,5.924,3.305c0.314-1.76-52.973-43.239-54.448-44.139"/>
	<path display="inline" fill="#E7C369" d="M135.231-3.699c4.392,4.854,7.983,10.422,12.028,15.842
		c2.278,3.051,20.835,24.695,23.321,27.55c1.85,2.125,4.539,4.506,4.003,7.525c-2.911,0.758-5.266-3.529-6.789-5.386
		c-1.845-2.248-20.277-23.169-22.055-25.619c-4.037-5.561-8.612-11.264-11.788-17.408c-2.197-0.197-4.364-3.795-5.862-5.341
		c-2.079-2.145-4.072-4.107-5.755-6.491c-3.089-4.376-5.297-10.021-10.373-12.799c-1.434-3.899-4.621-7.054-7.485-9.982
		c-1.778-1.818-3.264-4.221-4.858-6.062c-1.621-1.874-3.624-2.991-3.619-5.625c2.424-0.704,11.698,9.72,12.587,12.472
		c0.701,0.674,0.848,0.868,1.228,1.839c2.111,1.08,5.247,5.179,6.775,7.02c2.077,2.503,4.486,5.405,6.359,7.995
		c3.794,5.248,7.619,10.733,12.59,15.083"/>
	<path display="inline" fill="#E7C369" d="M129.111-47.831c2.962-1.265,23.539,45.447,24.34,47.38
		c1.093,2.636,2.643,4.915,3.261,7.651c-2.104,2.138-3.094-1.081-4.044-3.145c-0.993-2.159-22.406-46.911-22.85-49.093
		c-1.562-0.625-2.634-3.356,0.043-2.793"/>
	<path display="inline" fill="#E7C369" d="M159.5,11.5c1.729,1.7,3.574,2.441,4.694,4.806c0.541,1.141,2.919,6.18,1.056,6.723
		c-1.777,0.518-3.001-4.676-3.507-5.778c-0.678-1.477-4.234-4.99-1.993-5.75"/>
	<path display="inline" fill="#E7C369" d="M153.76-41.763c1.104,5.779,4.229,11.215,5.689,16.863
		c1.34,5.181,3.509,9.569,5.802,14.509c2.447,5.27,11.466,33.546,13.073,39.004c1.126,3.826,6.25,12.319-0.547,11.921
		c-2.314-11.186-12.506-43.481-17.05-53.94c-2.198-5.057-3.369-10.953-5.718-16.237c-1.54-3.466-6.196-12.279-4.274-16.506
		c0.304-0.669,0.336-0.917,1.014-1.379c1.354,1.774,1.217,4.914,2.347,6.775"/>
	<path display="inline" fill="#E7C369" d="M181.25,3.5c2.139,2.156,2.605,10.085,2.462,13.212c-3.166,0.896-1.623-3.865-1.713-5.461
		c-0.145-2.576-1.333-4.908-1.211-7.713c0.207-0.087,0.977-0.255,1.162-0.263c0.062,0.386,0.098,0.826,0.051,1.225"/>
	<path display="inline" fill="#E7C369" d="M174.403-47.778c2.692-0.06,4.619,36.988,4.908,38.973
		c0.225,1.544,2.648,9.181-0.537,8.266c-0.104-3.102-0.769-5.715-1.22-8.711c-0.196-1.301-5.088-39.483-2.651-38.278"/>
	<path display="inline" fill="#E7C369" d="M209.585,51.653c0-9.229-7.482-16.711-16.71-16.711c-9.23,0-16.711,7.482-16.711,16.711
		c0,6.611,3.849,12.309,9.42,15.02c-0.766,6.741-2.051,13.659-3.452,19.431c-1.47,6.048-3.402,12.292-5.04,18.271
		c0.623,0.078,0.999-0.156,1.613-0.354c9.977,0,19.97,0.016,29.936-0.479c-0.844-12.331-6.006-24.908-8.227-36.989
		C205.852,63.795,209.585,58.167,209.585,51.653z"/>
</g>
<g id="Layer_4" display="none">
	<g display="inline">
		<path fill="#E7C369" d="M-10.342-91.97c0-7.385-5.987-13.371-13.37-13.371c-7.385,0-13.372,5.986-13.372,13.371
			c0,5.29,3.079,9.848,7.536,12.018c-0.954,5.388-2.204,10.591-3.326,15.211c-1.175,4.838-2.352,10.481-3.469,14.956
			c0.5,0.063,0.823,0.116,1.564,0.062c7.85-0.098,15.915,0.172,23.647,0.022c-1.491-9.608-4.771-20.68-6.549-30.347
			C-13.332-82.255-10.342-86.759-10.342-91.97z"/>
		<path fill="#B2762A" d="M-22.727-128.541c-3.393-3.65-1.925-11.015-1.667-15.667c0.344-6.181-0.333-12.45-0.333-18.689
			c0-5.551,0-11.101,0-16.652c0-2.795-1.088-12.829,2.282-12.275c0.521,10.245,0.051,20.674,0.051,30.95c0,5.333,0,10.666,0,16
			c0,4.709,0.937,12.04-0.666,16.333"/>
		<path fill="#EB9D22" d="M-12.144-145.124c3.127-0.603,0.736,6.394,0.444,7.944c-0.241,1.281-0.818,8.901-2.443,8.823
			c-1.164-0.056,0.509-16.504,2.499-16.767"/>
		<path fill="#E7C369" d="M-11.144-150.124c3.39,0.907,10.032-39.821,9.417-42.113c-0.344,2.603-11.892,41.012-8.667,42.363"/>
		<path fill="#E7C369" d="M-6.158-126.109c0.023-2.206,1.257-3.994,2.116-5.925c1.103-2.477,1.499-5.113,2.536-7.538
			c1.825-4.267,3.765-8.321,5.196-12.759c2.538-7.866,6.311-15.104,8.498-23.18c0.885-3.269,2.778-6.18,4.252-9.183
			c1.708-3.481,1.536-6.145,5.454-7.152c-1.956,2.684-3.64,7.01-4.937,10.28c-1.451,3.662-2.926,7.388-4.239,11.037
			c-2.541,7.054-5.307,13.906-8.025,20.894c-1.68,4.316-3.752,8.74-5.415,12.95c-0.9,2.282-1.694,4.392-2.14,6.788
			c-0.318,1.702-1.11,5.704-3.533,3.548"/>
		<path fill="#E7C369" d="M4.356-121.874c0.917-4.917,9.583-9.584,6.493-14.537c-2.068,2.089-3.346,4.186-4.793,7.086
			c-0.515,1.034-5.102,8.093-1.45,7.7"/>
		<path fill="#EB9D22" d="M13.606-141.124c2.854,0.124,2.975-2.368,3.938-4.243c0.993-1.932,14.152-25.062,13.562-27.507
			c-1.222,1.523-13.728,23.511-14.75,25.237c-1.203,2.031-1.297,4.966-3,6.513"/>
		<path fill="#E7C369" d="M31.106-180.374c0.34,1.298,0.592,2.783,0.537,4.211c4.726-0.083,6.935-13.193,6.738-16.075
			c-0.853,1.556-5.681,11.592-7.025,12.613"/>
		<path fill="#E7C369" d="M12.345-117.139c-1.458-3.252,0.827-5.36,2.352-8.198c1.583-2.945,3.911-3.376,5.883-5.708
			c1.499-1.77,3.225-5.304,4.861-7.6c1.76-2.466,3.221-4.722,4.887-7.181c7.214-10.66,14.557-21.238,23.206-30.43
			c4.927-5.238,10.441-8.389,12.979-15.648c6.97-2.228-1.912,7.375-3.13,8.915c-3.566,4.512-7.413,8.47-10.988,13.316
			C45.099-159.78,36.93-150.806,30-140.627c-2.853,4.194-6.046,8.026-9.183,12.017c-2.622,3.341-4.503,10.116-8.414,11.77
			c-0.097-0.348-0.003-0.633-0.059-0.981"/>
		<path fill="#E7C369" d="M17.939-111.541c0.203-1.479,2.376-2.014,3.542-2.704c1.144-0.677,1.96-1.694,2.958-2.463
			c1.51-1.163,4.09-4.414,6.309-3.975c0.43,2.137-1.733,2.269-3.099,3.017c-1.121,0.613-2.476,1.733-3.376,2.613
			c-1.092,1.068-1.811,3.006-3.032,3.812c-0.851,0.561-4.851,0.87-3.302-0.8"/>
		<path fill="#E7C369" d="M34.439-123.041c0-1.851-0.332-3.228,1.204-4.462c1.204-0.968,2.793-1.615,3.824-2.676
			c1.028-0.468,53.702-39.768,55.006-39.361c2.453,0.765-0.206,2.831-1.212,3.62C90.875-164.051,36.335-125.363,34.439-123.041"/>
		<path fill="#EB9D22" d="M23.768-103.56c1.429-0.833,2.824-2.602,4.105-3.704c1.076-0.927,1.857-1.674,3.113-2.403
			c1.467-0.851,3.103-1.469,4.654-2.122c3.045-1.282,5.882-2.907,8.328-4.97c2.595-2.189,4.58-4.269,7.543-6.155
			c2.961-1.885,5.743-2.927,8.996-4.127c5.183-1.912,9.238-5.892,14.037-8.694c2.934-1.712,6.223-3.059,9.046-4.97
			c2.418-1.636,4.702-3.45,7.037-5.135c0.856-0.619,3.164-2.868,4.383-2.578c1.456,0.347,1.061,2.466,0.36,3.418
			c-1.776,2.413-5.821,1.015-7.484,3.302c-1.552,0.432-3.084,2.482-4.561,3.363c-1.322,0.788-2.812,1.683-4.151,2.375
			c-3.056,1.579-6.308,3.196-9.218,4.952c-2.539,1.532-4.706,3.634-7.108,5.14c-2.798,1.754-4.964,5.015-8.252,6.124
			c-1.397,0.471-2.802,0.226-4.083,0.868c-1.457,0.732-3.334,2.222-4.611,3.381c-2.301,2.085-4.782,3.404-7.624,4.566
			c-2.566,1.05-4.689,2.774-7.257,4.208c-1.662,0.929-5.587,5.145-7.221,4.832c-0.321-0.518-0.493-1.068-0.503-1.645
			c0.317,0.024,0.54-0.177,0.799-0.194"/>
		<path fill="#9C742E" d="M27.606-95.624c4.423-2.658,9.927-4.501,15.212-4.212c0.175,1.611-6.656,2.713-8.269,3.213
			c-1.292,0.4-7.539,3.832-7.155,0.787c0.241-0.062,0.48,0.021,0.712-0.038"/>
		<path fill="#E7C369" d="M47.606-100.624c-0.145-0.565-0.003-1.395,0.038-1.962c3.259-0.059,46.226-14.988,47.839-11.421
			c-2.112,1.172-39.702,10.467-41.877,11.322c-1.744,0.686-4.497,2.914-6,1.812"/>
		<path fill="#B2762A" d="M30.106-86.874c8.626-0.026,15.932-4.221,24.682-4.5c4.077-0.13,8.397-2.001,12.344-2.763
			c2.512-0.485,5.18-0.106,7.737-0.237c2.389-0.122,18.229-3.417,20.3-3.707c0.059,1.133,0.056,2.306,0,3.435
			c-9.122,0.462-31.546,4.357-40.568,5.272c-4.234,0.429-8.195,2.057-12.288,2.694c-3.995,0.623-8.101,1.736-12.174,1.512
			c0.161-0.485,0.039-1.179,0.218-1.706"/>
		<path fill="#E7C369" d="M28.939-74.707c0.491-0.573,1.186-1.762,1.834-2.004c0.884-0.33,2.376,0.059,3.333,0.012
			c2.176-0.106,4.171,0.144,6.308,0.183c0.098,0.509,0.153,1.123,0.167,1.616c-2.033,0.115-4.1-0.077-6.141,0.025
			c-1.688,0.085-3.656,0.477-5.334,0"/>
		<path fill="#E7C369" d="M42.773-76.874c0.002,0.658-0.008,1.325,0.025,1.975c2.807,0.143,5.582-0.186,8.345-0.308
			c3.016-0.134,40.332-0.202,43.23-0.354c-1.001-3.263-39.816-1.447-42.434-1.312c-3.141,0.161-6.179,0-9.333,0"/>
		<path fill="#E7C369" d="M30.439-67.374c-0.029,0.146-0.023,0.291,0.02,0.434c6.158,2.016,13.102,1.738,19.48,3.021
			c8.333,1.676,16.735,2.242,25.134,3.54c4.359,0.674,8.797,1.077,13.199,1.671c1.299,0.176,4.267-0.203,5.332,0.497
			c0.915,0.601,1.108,2.703,0.047,3.345c-1.02,0.617-3.014-0.571-4.049-0.845c-1.446-0.381-3.081-0.407-4.667-0.496
			c-3.656-0.205-7.261-1.052-10.901-1.338c-7.312-0.575-14.104-1.932-21.233-3.338c-3.012-0.594-5.962-1.29-9.033-2.204
			c-2.834-0.843-5.909-0.62-8.995-0.62c-0.912,0-3.104,0.4-3.842-0.168C30.16-64.468,30.439-66.408,30.439-67.374"/>
		<path fill="#EB9D22" d="M27.939-56.874c0.469-1.551,1.868-1.219,3-0.791c1.438,0.543,3.02,0.976,4.338,1.75
			c0.944,0.555,2.382,1.276,3.153,1.908c0.767,0.626,1.992,2.8,0.642,3.607c-1.022,0.611-2.234-1.03-2.93-1.475
			c-1.044-0.667-2.393-1.084-3.495-1.667c-1.152-0.608-2.291-1.158-3.466-1.796c-0.751-0.408-2.54-1.727-0.575-2.037"/>
		<path fill="#B2762A" d="M45.939-52.207c2.532,0.853,4.535,1.975,7.176,2.661c1.583,0.412,43.318,18.149,42.729,20.59
			c-1.005-0.23-1.92-1.29-2.941-1.687c-1.28-0.497-39.206-16.354-40.629-16.564c-2.206-0.327-4.147-2.241-6.476-3.028
			c-0.305-0.618-0.371-1.351,0.309-1.639"/>
		<path fill="#E7C369" d="M24.106-49.374c2.911,3.243,8.678,5.001,12.5,7.048c4.192,2.245,49.363,31.807,53.825,33.296
			c1.646,0.549,3.948,0.745,4.562,2.695c0.854,2.716-1.223,2.49-3.062,2.111C88.235-4.987,44.09-34.326,41.119-36.686
			c-2.988-2.375-7.285-4.377-10.757-6.126c-1.677-0.845-3.345-1.592-5.006-2.618c-1.075-0.664-3.759-3.309-1-3.694"/>
		<path fill="#E7C369" d="M19.106-41.874c1.25,1.884,3.094,3.093,4.806,4.443c1.982,1.566,3.801,3.719,5.926,5.219
			c-0.855-1.688-4.862-1.975-6.543-3.411c-1.257-1.074-3.14-3.654-4.899-3.788c0.087-0.713,0.308-1.578,0.711-2.213"/>
		<path fill="#B2762A" d="M31.856-28.874c3.054-0.264,5.919,1.725,7.937,3.793c0.854,0.875,56.609,65.675,55.396,66.832
			c-0.585,0.559-56.605-63.846-57.585-64.369c-1.284-0.687-3.324-1.278-4.248-2.575C32.578-26.287,32.732-27.976,31.856-28.874"/>
		<path fill="#E7C369" d="M11.654-34.124c1.721,1.338,2.968,1.505,4.459,3.396c1.455,1.846,2.881,3.817,4.389,5.655
			c3.339,4.067,6.337,8.373,9.926,12.335c3.452,3.811,6.579,8.443,9.691,12.651C41.5,1.781,43.101,3.62,44.58,5.342
			c1.687,1.966,3.392,4.921,5.487,6.376c0.341,2.588,4.364,5.256,6.116,7.172c2.082,2.274,3.979,4.969,5.789,7.243
			c3.363,4.229,6.997,8.033,9.884,12.627c1.222,1.946,1.594,4.219-1.22,2.448c-0.955-0.6-1.446-2.589-2.281-3.425
			c-0.981-0.982-1.997-1.401-3.025-2.262c-3.38-2.829-5.785-7.137-8.776-10.676c-6.641-7.862-12.671-17.085-19.53-24.251
			C32.691-3.93,29.146-9.439,24.895-14.154c-3.509-3.892-5.824-8.189-9.38-12.065c-1.394-1.518-2.139-2.437-3.037-4.223
			c-0.425-0.846-1.903-4.267-0.522-3.08"/>
		<path fill="#EB9D22" d="M4.356-28.874c2.605,0.838,2.785,3.893,3.493,6.018c0.6,1.805,2.189,3.467,2.219,5.443
			c-3.411,0.503-6.309-8.75-6.175-11.423c0.443-0.13,0.598,0.043,0.963,0.211"/>
		<path fill="#E7C369" d="M12.356-12.624c1.89-2.09,4.11,3.717,5.182,5.306c1.243,1.845,29.653,47.414,28.039,48.814
			C42.875,43.837,16.129-3.643,15.288-5.368c-0.635-1.3-3.795-7.44-1.932-8.007"/>
		<path fill="#E7C369" d="M-4.644-24.124c3.646-0.632,4.426,9.22,5,11.694c0.946,4.077,2.142,8.065,3.993,11.8
			c1.841,3.714,3.21,7.888,4.7,11.817c0.837,2.207,1.534,4.503,2.501,6.694c0.645,1.463,10.535,22.535,10.33,24.031
			c-0.009,0.063,0.129,0.857,0.146,1.019c-2.275,1.219-2.186-1.74-2.768-3.158C18.522,37.98,9.47,18.37,8.606,16.577
			c-1.067-2.215-2.27-3.793-2.75-6.201C5.442,8.302,4.933,6.491,4.294,4.382C1.919-3.466-0.882-11.325-3.963-18.805
			c-0.487-1.183-2.472-5.216-0.181-5.319"/>
		<path fill="#E7C369" d="M-14.394-21.874c0.417-0.096,0.993-0.006,1.406,0.038c0.623,4.186,1.789,8.632,1.556,12.924
			c-0.377,0.075-0.798,0.078-1.174-0.001c-0.229-3.784-2.788-9.722-1.288-13.211"/>
		<path fill="#EB9D22" d="M-10.894-4.624c3.281-0.628,2.156,5.274,2.25,7.244c0.149,3.133,4.85,36.091,4.587,39.25
			c-0.457,0.043-0.755-0.047-1.169-0.249c-0.049-3.403-8.341-43.95-5.418-46.245"/>
		<path fill="#E7C369" d="M-23.894-23.374c2.634,3.111,1.174,9.671,1,13.568c-0.231,5.159-0.25,10.443-0.25,15.682
			c0,5.428,0.75,10.495,0.75,15.987c0,5.171,0,10.342,0,15.513c0,1.885,0.681,4.826-2.213,3.967
			c-0.481-9.754-0.68-19.985-0.287-29.716c0.182-4.526,0.238-8.939,0.25-13.501c0.006-2.282-0.358-4.528-0.256-6.757
			c0.098-2.12,1.023-4.092,1.019-6.243c-0.007-3.045-0.456-5.698-0.013-8.75"/>
		<path fill="#E7C369" d="M-32.644-22.124c0,3.004,0.059,5.633-0.806,8.507c-0.748,2.487-0.665,5.243-1.488,7.705
			c-3.452,0.955-0.732-6.321-0.456-7.712c0.29-1.468,0.288-2.858,0.744-4.237c0.503-1.52,1.78-2.58,1.756-4.263"/>
		<path fill="#E7C369" d="M-37.394-1.124c0.568-0.142,1.391-0.003,1.961,0.038c-0.124,1.989-1.39,4.309-1.712,6.462
			c-0.269,1.793-1.766,36.674-4.596,36.12c-0.123-2.401,2.7-34.824,3.152-37.064c0.354-1.757,0.102-4.461,1.444-5.806"/>
		<path fill="#E7C369" d="M-46.464-8.963c0.983-4.086,2.556-8.101,4.073-11.813c0.385-0.942,1.604-5.17-0.808-3.808
			c-1.087,0.614-1.414,4.603-1.891,5.73c-1.601,3.773-3.783,7.749-4.861,11.766c-1.061,3.95-2.158,7.948-3.661,11.86
			c-3.353,8.73-7.184,16.949-9.865,25.935c-0.636,2.13-0.947,4.353-1.77,6.439c-0.272,0.689-2.705,5.508,0.004,4.538
			c0.979-0.351,1.767-5.219,2.152-6.25c0.778-2.084,1.907-4.441,2.476-6.862c1.611-6.848,5.474-12.54,7.733-18.96
			c2.29-6.506,3.568-13.268,6.646-19.298"/>
		<path fill="#E7C369" d="M-52.894-21.374c-1.138,1.503-2.762,3.386-4.2,4.737c-0.417,0.392-1.35,2.877-1.817,0.823
			c-0.224-0.979,0.91-2.017,1.455-2.823c2.491-3.68,4.734-7.13,6.824-11.162c0.211,2.151,0.413,7.569-2.22,8.218
			c-0.021,0.458-0.252,0.485-0.542,0.707"/>
		<path fill="#E7C369" d="M-60.394-9.624c-0.394-0.164-1.114-0.146-1.518-0.218c-0.16,2.228-30.462,45.145-31.683,47.081
			c-0.666,1.058-3.512,6.477-1.037,5.943c3.086-0.664,33.285-50.652,34.212-53.019c-0.238-0.061-0.503,0.029-0.725-0.038"/>
		<path fill="#9C742E" d="M-68.394-18.374c0.259-2.086,3.183-5.257,4.306-7.001c1.568-2.437,4.276-4.782,6.651-6.292
			c1.131-3.652-1.742-1.253-2.775-0.014c-1.149,1.379-2.525,2.378-3.674,3.995c-2.287,3.218-4.596,7.026-6.952,10.118
			c-1.151,1.511-2.849,2.303-4.262,3.762c-1.387,1.433-32.074,43.06-33.242,44.605c-1.247,1.651-2.896,2.864-4.146,4.861
			c-0.693,1.107-1.153,2.207-2.068,3.145c-0.633,0.648-2.337,1.348-2.567,2.244c-0.075,0.29-0.128,0.422-0.132,0.763
			c1.86,0.948,8.55-8.245,10.018-9.945c3.175-3.675,36.211-47.683,39.094-51.241"/>
		<path fill="#EB9D22" d="M-81.394-28.124c-2.141,3.447-55.586,33.888-58.039,37.657c3.984,3.571,59.057-33.012,58.751-37.368
			c-0.766-0.284-0.456,0.177-0.713,0.461"/>
		<path fill="#E7C369" d="M-77.644-31.374c0.386-1.445,4.423-4.195,5.682-5.305c1.482-1.307,4.76-4.161,6.774-3.901
			c1.722,2.788-10.381,7.468-10.494,10.918c-1.006,0.023-2.006,0.306-2.932,0.506c-0.166-1.119,0.394-2.029,1.219-2.718"/>
		<path fill="#E7C369" d="M-70.144-47.677c-0.958,1.925-3.508,2.868-5.098,4.163c-2.13,1.733-4.278,3.354-6.865,4.667
			c-4.586,2.328-8.857,5.078-12.917,8.144c-3.701,2.794-8.763,3.088-12.613,5.594c-4.221,2.747-8.528,5.028-12.896,7.437
			c-4.906,2.707-9.367,5.698-14.061,8.606c-1.437,0.89-3.662,3.944-4.868,1.809c-1.722-3.05,2.888-2.347,4.366-2.916
			c3.768-1.448,7.725-5.018,11.054-7.26c3.759-2.533,8.374-4.104,12.197-6.559c3.369-2.164,6.419-4.916,9.59-7.461
			c3.042-2.44,6.983-3.515,10.323-5.35c3.568-1.96,7.272-4.024,10.82-5.653c2.19-1.006,3.626-1.733,5.401-3.315
			c0.997-0.889,2.809-2.766,4.16-2.604c0.382,0.046,0.763-0.059,1.137,0.036c0.156,0.556,0.011,1.022-0.199,1.359"/>
		<path fill="#EB9D22" d="M-94.894-50.624c0.254,0.918,0.37,1.987,0.212,2.962c-1.775-0.1-45.896,15.123-45.212,11.737
			c0.286-1.415,4.733-2.085,5.818-2.237c2.528-0.355,37.17-11.364,39.432-12.212"/>
		<path fill="#E7C369" d="M-75.144-56.874c-2.724,1.037-5.21,1.162-8.001,1.933c-1.216,0.336-3.158,0.869-4.249,1.317
			c-1.315,0.54-2.574,0.651-1.457,2.706c3.086,0.171,10.438-3.843,12.381-1.976c0.795-1.426,3.472-2.993,0.825-4.23"/>
		<path fill="#E7C369" d="M-76.644-64.374c-1.917,1.645-4.652,0.603-7.026,0.987c-2.153,0.348-4.716,0.988-6.993,1.507
			c-4.558,1.038-9.496,1.886-13.707,2.963c-2.503,0.641-4.358,1.707-7.025,1.793c-2.32,0.075-15.006,1.967-17.306,2.188
			c-2.604,0.251-5.158,1.177-7.824,1.444c-2.708,0.271-4.333-1.484-1.182-2.25c1.825-0.443,4.197,0.092,6.074,0
			c2.204-0.107,14.4-2.983,16.47-3.396c2.577-0.513,4.852-0.691,7.27-1.486c1.811-0.596,3.863-0.982,5.728-1.263
			c4.455-0.674,9.217-0.837,13.515-1.963c2.536-0.665,3.784-1.525,6.574-1.525c1.996,0,3.988-0.052,5.9-0.206
			c-0.148,0.486-0.563,1.134-0.968,1.456"/>
		<path fill="#B2762A" d="M-91.394-76.374c1.348-1.205,5.318-0.154,7.267-0.251c2.104-0.104,4.959-0.856,6.939,0.294
			c0.083,0.374,0.081,0.792,0.006,1.169c-4.329,0.214-8.541,0.752-12.833-0.197c-3.932-0.87-36.189-1.631-40.286-1.631
			c-1.481,0-10.21-0.878-9.5,1.756c0.569,2.111,44.791-0.05,47.368-0.178c0.277-0.748-0.15-0.471-0.461-0.713"/>
		<path fill="#E7C369" d="M-139.894-95.624c3.815-1.378,8.872,0.751,12.744,1.493c4.455,0.854,8.859,1.029,13.475,1.257
			c4.774,0.237,9.483,1.293,14.211,2.194c4.458,0.85,8.396,2.601,12.765,3.305c1.894,0.306,3.778,0.458,5.618,0.251
			c2.416-0.273,4.145-1.068,3.652,2.462c-1.846,0.396-4.156-1.101-6.096-1.212c-2.51-0.145-4.887-0.118-7.346-0.486
			c-4.981-0.746-10.074-1.186-15.007-2.069c-5.747-1.029-10.978-2.623-16.864-2.694c-4.974-0.06-9.76-0.511-14.46-1.939
			c-1.289-0.392-3.814-1.312-1.955-2.811"/>
		<path fill="#EB9D22" d="M-86.144-99.874c2.309-0.323,5.102,1.721,6.987,2.763c0.771,0.427,6.664,2.822,4.212,4.187
			c-1.322,0.736-5.187-2.577-6.448-3.157C-82.218-96.461-89.176-98.284-86.144-99.874"/>
		<path fill="#E7C369" d="M-94.144-99.124c1.02-2.228-34.653-18.946-37.07-19.321c-1.418-0.219-2.953,0.898-4.513,0.518
			c-1.441-0.352-2.344-1.649-3.706-1.975c0.825,4.978,42.388,17.138,45.039,20.777"/>
		<path fill="#E7C369" d="M-85.394-112.874c-1.714-0.886-3.139-2.003-4.931-3.068c-1.598-0.951-43.206-25.828-44.741-26.562
			c-1.287-0.617-5.1-0.862-4.754,1.247c0.222,1.35,44.158,25.529,45.425,26.196c6.88,3.616,13.67,7.775,20.426,10.994
			c1.06,0.505,2.008,1.08,2.831,1.913c0.847-0.308,0.98-0.502,0.95-1.426c-2.522-0.683-5.071-2.897-7.395-4.099
			c-3.039-1.571-5.909-3.08-8.312-5.194"/>
		<path fill="#E7C369" d="M-74.394-118.874c2.701,2.246,6.479,5.434,9.712,7.799c-0.403,0.693-1.085,1.374-1.657,1.933
			c-0.442-2.562-5.497-6.527-8.013-7.274c-0.538-0.629-0.898-1.387-1.004-2.17c0.247-0.063,0.469,0.009,0.712-0.037"/>
		<path fill="#EB9D22" d="M-133.343-167.514c-1.077-0.452-6.118-6.191-6.498-3c-0.202,1.691,53.419,42.983,54.522,43.834
			c1.281,0.989,5.403,6.222,5.924,3.305c0.314-1.76-52.973-43.239-54.448-44.139"/>
		<path fill="#E7C369" d="M-81.163-149.073c4.392,4.854,7.983,10.422,12.028,15.842c2.278,3.051,4.451,5.921,6.937,8.776
			c1.85,2.125,4.539,4.506,4.003,7.525c-2.911,0.758-5.266-3.529-6.789-5.386c-1.845-2.249-3.893-4.396-5.67-6.845
			c-4.037-5.561-8.612-11.264-11.788-17.408c-2.197-0.197-4.364-3.794-5.862-5.341c-2.079-2.146-4.072-4.107-5.755-6.491
			c-3.089-4.376-5.297-10.021-10.373-12.799c-1.434-3.899-4.621-7.054-7.485-9.982c-1.778-1.818-3.264-4.221-4.858-6.062
			c-1.622-1.874-3.624-2.991-3.619-5.624c2.424-0.704,11.698,9.72,12.587,12.472c0.701,0.674,0.848,0.868,1.228,1.839
			c2.111,1.08,5.247,5.179,6.775,7.02c2.077,2.502,4.486,5.405,6.359,7.995c3.794,5.248,7.619,10.733,12.59,15.082"/>
		<path fill="#E7C369" d="M-87.283-193.205c2.962-1.265,23.539,45.447,24.34,47.38c1.093,2.636,2.643,4.915,3.261,7.651
			c-2.104,2.138-3.094-1.081-4.044-3.145c-0.993-2.159-22.406-46.911-22.85-49.093c-1.562-0.624-2.634-3.356,0.043-2.794"/>
		<path fill="#9C742E" d="M-56.894-133.874c1.729,1.7,3.574,2.441,4.694,4.806c0.541,1.141,2.919,6.18,1.056,6.723
			c-1.777,0.518-3.001-4.676-3.507-5.778c-0.678-1.477-4.234-4.99-1.993-5.75"/>
		<path fill="#E7C369" d="M-62.634-187.138c1.104,5.779,4.229,11.215,5.69,16.863c1.34,5.181,3.509,9.569,5.802,14.509
			c2.447,5.27,4.597,11.47,6.204,16.929c1.125,3.826,6.25,12.319-0.547,11.921c-2.314-11.186-5.637-21.405-10.181-31.864
			c-2.198-5.057-3.369-10.953-5.718-16.237c-1.541-3.466-6.196-12.279-4.274-16.506c0.304-0.669,0.336-0.917,1.014-1.379
			c1.354,1.774,1.217,4.913,2.347,6.775"/>
		<path fill="#E7C369" d="M-35.144-141.874c2.139,2.156,2.605,10.085,2.462,13.212c-3.166,0.896-1.624-3.865-1.713-5.461
			c-0.145-2.576-1.333-4.908-1.211-7.713c0.207-0.087,0.977-0.255,1.162-0.263c0.062,0.386,0.098,0.826,0.051,1.225"/>
		<path fill="#E7C369" d="M-41.991-193.152c2.692-0.06,4.619,36.988,4.908,38.973c0.225,1.544,2.648,9.181-0.537,8.266
			c-0.104-3.103-0.769-5.715-1.22-8.711c-0.196-1.301-5.088-39.483-2.651-38.278"/>
	</g>
	<path display="inline" fill="#E7C369" d="M331.658,163.425c0-7.385-5.988-13.371-13.371-13.371
		c-7.385,0-13.371,5.986-13.371,13.371c0,5.29,3.078,9.849,7.536,12.018c-0.954,5.389-2.204,10.592-3.326,15.211
		c-1.175,4.838-2.353,10.48-3.47,14.957c0.5,0.062,0.824,0.115,1.564,0.061c7.85-0.098,15.914,0.172,23.646,0.023
		c-1.49-9.609-4.772-20.68-6.549-30.348C328.668,173.14,331.658,168.636,331.658,163.425z"/>
</g>
<g id="Layer_3" display="none">
	<path display="inline" fill="#E7C369" d="M188.667,16.834c-3.394-3.65-1.924-11.015-1.667-15.667
		c0.343-6.181-0.333-12.45-0.333-18.689c0-5.551,0-11.101,0-16.652c0-2.794-1.088-12.829,2.283-12.275
		C189.471-36.205,189-25.776,189-15.5c0,5.334,0,10.667,0,16c0,4.709,0.937,12.04-0.667,16.334"/>
	<path display="inline" fill="#E7C369" d="M199.25,0.25c3.127-0.602,0.736,6.394,0.444,7.944c-0.241,1.281-0.818,8.901-2.443,8.823
		c-1.164-0.056,0.509-16.504,2.499-16.767"/>
	<path display="inline" fill="#E7C369" d="M200.25-4.75c3.39,0.907,3.67-11.382,3.055-13.674C202.961-15.822,197.774-5.852,201-4.5"
		/>
	<path display="inline" fill="#E7C369" d="M205.25,19.25c0.025-2.297,1.333-4.16,2.243-6.17c1.169-2.58,1.589-5.325,2.688-7.85
		c1.934-4.443,3.989-8.666,5.507-13.286c2.69-8.191,6.689-15.728,9.007-24.139c0.938-3.404,2.944-6.436,4.506-9.562
		c1.811-3.625,1.628-6.398,5.781-7.448c-2.073,2.795-3.858,7.3-5.232,10.705c-1.538,3.814-3.101,7.693-4.493,11.493
		c-2.692,7.346-5.624,14.48-8.506,21.758c-1.78,4.495-3.976,9.101-5.738,13.485c-0.955,2.377-1.796,4.574-2.269,7.069
		c-0.337,1.772-1.177,5.939-3.744,3.695"/>
	<path display="inline" fill="#E7C369" d="M215.75,23.5c0.917-4.916,9.583-9.583,6.493-14.537c-2.068,2.089-3.346,4.186-4.793,7.086
		c-0.515,1.034-5.102,8.093-1.45,7.7"/>
	<path display="inline" fill="#E7C369" d="M225,4.25c2.854,0.124,2.976-2.368,3.938-4.243c0.993-1.932,3.603-4.287,3.012-6.731
		c-1.222,1.523-3.178,2.735-4.2,4.461c-1.203,2.031-1.297,4.966-3,6.513"/>
	<path display="inline" fill="#E7C369" d="M242.5-35c0.34,1.298,0.592,2.783,0.537,4.211c4.726-0.083,3.359-4.761,3.162-7.643
		c-0.852,1.556-2.104,3.16-3.449,4.182"/>
	<path display="inline" fill="#E7C369" d="M222.667,28.5c-0.747-1.587,0.423-2.615,1.203-3.999c0.811-1.438,2.002-1.648,3.012-2.785
		c0.768-0.863,1.65-2.587,2.488-3.708c0.901-1.203,1.648-2.304,2.501-3.503c3.693-5.2,7.451-10.361,11.879-14.846
		c2.522-2.555,5.345-4.093,6.644-7.634c3.567-1.087-0.979,5.062-1.602,5.813c-1.825,2.201-3.795,4.132-5.624,6.496
		c-3.735,4.827-7.917,9.205-11.464,14.171c-1.461,2.046-3.095,3.916-4.7,5.862c-1.343,1.63-2.306,3.472-4.308,4.278
		c-0.049-0.17-0.001-0.309-0.029-0.478"/>
	<path display="inline" fill="#E7C369" d="M229.333,33.834c0.203-1.479,2.376-2.014,3.542-2.704c1.144-0.677,1.96-1.694,2.958-2.463
		c1.51-1.163,4.09-4.414,6.309-3.975c0.43,2.137-1.733,2.269-3.099,3.017c-1.121,0.613-2.477,1.733-3.376,2.613
		c-1.092,1.068-1.811,3.006-3.032,3.812c-0.851,0.561-4.851,0.87-3.302-0.8"/>
	<path display="inline" fill="#E7C369" d="M245.833,22.334c0-1.851-0.332-3.228,1.204-4.462c1.204-0.968,2.793-1.615,3.824-2.676
		c1.028-0.468,2.834-2.268,4.138-1.861c2.453,0.765-0.206,2.831-1.212,3.62C251.401,18.824,247.729,20.012,245.833,22.334"/>
	<path display="inline" fill="#E7C369" d="M235.167,41.834c1.444-0.823,2.854-2.572,4.149-3.661
		c1.088-0.916,1.876-1.655,3.146-2.375c1.482-0.841,3.136-1.452,4.704-2.097c3.077-1.267,5.945-2.873,8.417-4.912
		c2.623-2.164,4.63-4.219,7.624-6.083c2.992-1.863,5.805-2.893,9.092-4.079c5.238-1.89,9.338-5.823,14.188-8.593
		c2.965-1.693,6.289-3.024,9.143-4.912c2.444-1.617,4.753-3.41,7.112-5.075c0.866-0.611,3.198-2.835,4.43-2.548
		c1.472,0.343,1.072,2.437,0.364,3.378c-1.795,2.385-5.884,1.003-7.564,3.264c-1.568,0.427-3.117,2.454-4.609,3.324
		c-1.336,0.779-2.842,1.663-4.195,2.348c-3.089,1.561-6.375,3.159-9.316,4.894c-2.566,1.515-4.757,3.592-7.185,5.08
		c-2.828,1.734-5.017,4.957-8.34,6.053c-1.413,0.466-2.832,0.223-4.127,0.858c-1.473,0.723-3.369,2.196-4.661,3.342
		c-2.325,2.061-4.833,3.364-7.705,4.513c-2.594,1.038-4.739,2.742-7.334,4.159c-1.681,0.918-5.647,5.085-7.299,4.776
		c-0.324-0.512-0.498-1.056-0.508-1.625c0.32,0.023,0.546-0.175,0.808-0.192"/>
	<path display="inline" fill="#E7C369" d="M239,49.75c4.423-2.658,9.927-4.5,15.212-4.212c0.175,1.611-6.656,2.713-8.268,3.213
		c-1.292,0.4-7.539,3.833-7.155,0.787c0.241-0.062,0.48,0.021,0.712-0.038"/>
	<path display="inline" fill="#E7C369" d="M259,44.75c-0.145-0.565-0.003-1.395,0.038-1.962c3.259-0.059,10.83-5.648,12.443-2.081
		c-2.112,1.172-4.307,1.127-6.481,1.982c-1.744,0.686-4.497,2.914-6,1.811"/>
	<path display="inline" fill="#E7C369" d="M241.5,58.5c8.626-0.026,15.932-4.221,24.682-4.5c4.077-0.13,8.398-2.001,12.344-2.763
		c2.512-0.485,5.18-0.106,7.737-0.237c2.389-0.122,4.129-1.183,6.199-1.473c0.059,1.133,0.056,2.306,0,3.435
		c-9.122,0.462-17.445,2.123-26.468,3.038c-4.234,0.429-8.195,2.057-12.288,2.694c-3.995,0.623-8.101,1.736-12.174,1.512
		c0.161-0.485,0.039-1.179,0.218-1.707"/>
	<path display="inline" fill="#E7C369" d="M240.333,70.667c0.491-0.573,1.186-1.762,1.834-2.004c0.884-0.33,2.376,0.059,3.333,0.012
		c2.176-0.106,4.171,0.144,6.308,0.183c0.098,0.509,0.153,1.123,0.167,1.616c-2.033,0.115-4.1-0.077-6.141,0.025
		c-1.688,0.085-3.656,0.477-5.334,0"/>
	<path display="inline" fill="#E7C369" d="M254.167,68.5c0.002,0.658-0.008,1.325,0.025,1.975c2.807,0.143,5.582-0.186,8.345-0.308
		c3.016-0.134,5.877,0.623,8.774,0.471c-1.001-3.263-5.36-2.272-7.978-2.138c-3.141,0.161-6.179,0-9.333,0"/>
	<path display="inline" fill="#E7C369" d="M241.833,78c-0.029,0.147-0.023,0.291,0.02,0.434c6.158,2.016,13.102,1.738,19.481,3.021
		c8.333,1.676,16.735,2.242,25.134,3.54c4.359,0.674,8.797,1.077,13.199,1.671c1.299,0.176,4.267-0.203,5.332,0.497
		c0.915,0.601,1.108,2.703,0.047,3.345c-1.02,0.617-3.014-0.571-4.049-0.845c-1.446-0.381-3.081-0.407-4.667-0.496
		c-3.656-0.205-7.261-1.052-10.901-1.338c-7.311-0.575-14.104-1.932-21.233-3.338c-3.012-0.594-5.962-1.29-9.033-2.204
		c-2.834-0.843-5.909-0.62-8.995-0.62c-0.912,0-3.104,0.4-3.842-0.168C241.554,80.906,241.833,78.967,241.833,78"/>
	<path display="inline" fill="#E7C369" d="M239.333,88.5c0.469-1.551,1.868-1.219,3-0.791c1.438,0.543,3.02,0.976,4.338,1.75
		c0.944,0.555,2.382,1.276,3.153,1.908c0.767,0.626,1.992,2.8,0.642,3.607c-1.021,0.611-2.234-1.03-2.93-1.475
		c-1.044-0.667-2.393-1.084-3.495-1.667c-1.152-0.608-2.291-1.158-3.466-1.796c-0.751-0.408-2.54-1.727-0.575-2.037"/>
	<path display="inline" fill="#E7C369" d="M257.333,93.167c2.532,0.854,4.535,1.975,7.176,2.661
		c1.583,0.412,6.723,2.209,6.133,4.649c-1.005-0.23-1.92-1.29-2.941-1.687c-1.28-0.497-2.61-0.413-4.033-0.624
		c-2.206-0.327-4.147-2.241-6.476-3.028c-0.305-0.618-0.371-1.351,0.309-1.639"/>
	<path display="inline" fill="#E7C369" d="M235.5,96c2.911,3.243,8.678,5.001,12.5,7.048c4.192,2.245,7.788,5.462,12.25,6.951
		c1.645,0.549,3.948,0.745,4.561,2.695c0.854,2.716-1.223,2.49-3.061,2.111c-3.696-0.763-6.266-3.757-9.237-6.117
		c-2.988-2.375-7.285-4.377-10.757-6.126c-1.677-0.845-3.345-1.592-5.006-2.618c-1.075-0.664-3.759-3.31-1-3.694"/>
	<path display="inline" fill="#E7C369" d="M230.5,103.5c1.25,1.884,3.094,3.093,4.806,4.443c1.982,1.565,3.801,3.719,5.926,5.219
		c-0.855-1.688-4.862-1.975-6.543-3.411c-1.257-1.074-3.14-3.654-4.899-3.788c0.087-0.713,0.308-1.578,0.711-2.213"/>
	<path display="inline" fill="#E7C369" d="M243.25,116.5c3.054-0.264,5.919,1.725,7.937,3.793c0.854,0.875,5.737,6.317,4.524,7.475
		c-0.585,0.559-5.733-4.488-6.713-5.012c-1.284-0.687-3.324-1.278-4.248-2.575C243.972,119.088,244.126,117.398,243.25,116.5"/>
	<path display="inline" fill="#E7C369" d="M223,111.25c1.421,1.11,2.45,1.249,3.682,2.819c1.201,1.531,2.378,3.168,3.623,4.693
		c2.756,3.376,5.231,6.949,8.194,10.238c2.85,3.163,5.432,7.008,8.001,10.5c1.141,1.55,2.462,3.076,3.683,4.506
		c1.393,1.632,2.8,4.084,4.53,5.292c0.281,2.147,3.603,4.362,5.05,5.952c1.719,1.888,3.285,4.124,4.779,6.012
		c2.776,3.511,5.776,6.668,8.159,10.48c1.009,1.615,1.316,3.501-1.007,2.032c-0.788-0.498-1.193-2.149-1.883-2.843
		c-0.809-0.815-1.649-1.163-2.498-1.877c-2.79-2.349-4.776-5.924-7.245-8.861c-5.482-6.525-10.461-14.18-16.124-20.128
		c-3.576-3.756-6.503-8.328-10.013-12.241c-2.896-3.229-4.809-6.796-7.744-10.014c-1.15-1.26-1.766-2.022-2.507-3.505
		c-0.351-0.702-1.571-3.541-0.431-2.557"/>
	<path display="inline" fill="#E7C369" d="M215.75,116.5c2.605,0.838,2.785,3.893,3.493,6.019c0.6,1.805,2.188,3.467,2.219,5.443
		c-3.411,0.503-6.309-8.75-6.175-11.423c0.443-0.13,0.598,0.043,0.963,0.211"/>
	<path display="inline" fill="#E7C369" d="M223.75,132.75c1.89-2.09,4.11,3.717,5.182,5.306c1.243,1.845,5.188,6.287,3.573,7.688
		c-2.701,2.342-4.981-4.012-5.823-5.736c-0.635-1.3-3.795-7.44-1.932-8.007"/>
	<path display="inline" fill="#E7C369" d="M206.75,121.25c3.646-0.632,4.426,9.22,5,11.694c0.946,4.077,2.142,8.066,3.993,11.8
		c1.841,3.714,3.21,7.888,4.7,11.817c0.837,2.207,1.534,4.503,2.501,6.694c0.645,1.463,2.578,4.692,2.373,6.188
		c-0.009,0.064,0.129,0.857,0.146,1.019c-2.275,1.219-2.186-1.74-2.768-3.158c-0.736-1.793-1.831-3.561-2.695-5.354
		c-1.067-2.215-2.27-3.793-2.75-6.201c-0.414-2.073-0.923-3.885-1.562-5.993c-2.375-7.849-5.177-15.707-8.258-23.188
		c-0.487-1.183-2.472-5.216-0.181-5.319"/>
	<path display="inline" fill="#E7C369" d="M197,123.5c0.417-0.096,0.993-0.006,1.406,0.038c0.623,4.187,1.789,8.632,1.556,12.924
		c-0.377,0.075-0.798,0.078-1.174-0.001c-0.229-3.784-2.788-9.722-1.288-13.211"/>
	<path display="inline" fill="#E7C369" d="M200.5,140.75c3.281-0.628,2.156,5.274,2.25,7.244c0.149,3.133,0.977,6.308,0.713,9.467
		c-0.457,0.043-0.755-0.047-1.169-0.249c-0.049-3.403-4.467-14.167-1.544-16.462"/>
	<path display="inline" fill="#E7C369" d="M187.5,122c2.634,3.111,1.174,9.671,1,13.568c-0.231,5.159-0.25,10.443-0.25,15.682
		c0,5.428,0.75,10.495,0.75,15.987c0,5.171,0,10.342,0,15.513c0,1.885,0.681,4.826-2.212,3.967
		c-0.481-9.754-0.68-19.985-0.288-29.716c0.182-4.526,0.239-8.939,0.25-13.501c0.005-2.282-0.358-4.528-0.256-6.757
		c0.098-2.12,1.023-4.092,1.019-6.243c-0.007-3.045-0.456-5.698-0.013-8.75"/>
	<path display="inline" fill="#E7C369" d="M178.75,123.25c0,3.004,0.059,5.633-0.806,8.507c-0.748,2.487-0.665,5.243-1.488,7.705
		c-3.452,0.955-0.732-6.321-0.456-7.712c0.29-1.468,0.288-2.858,0.744-4.237c0.503-1.519,1.78-2.58,1.756-4.263"/>
	<path display="inline" fill="#E7C369" d="M174,144.25c0.568-0.142,1.391-0.003,1.961,0.038c-0.124,1.989-1.39,4.31-1.712,6.462
		c-0.269,1.793,0.619,6.266-2.211,5.712c-0.123-2.401,0.315-4.416,0.768-6.656c0.354-1.757,0.102-4.461,1.444-5.806"/>
	<path display="inline" fill="#E7C369" d="M164.5,137c1.073-4.237,2.789-8.402,4.444-12.251c0.42-0.977,1.749-5.361-0.882-3.949
		c-1.185,0.637-1.542,4.774-2.063,5.943c-1.746,3.913-4.127,8.035-5.304,12.201c-1.157,4.097-2.355,8.242-3.994,12.3
		c-3.658,9.053-7.838,17.577-10.763,26.895c-0.693,2.209-1.033,4.515-1.931,6.679c-0.297,0.715-2.952,5.712,0.005,4.706
		c1.069-0.363,1.928-5.412,2.348-6.481c0.849-2.161,2.08-4.607,2.702-7.116c1.758-7.102,5.972-13.005,8.437-19.663
		c2.498-6.747,3.893-13.76,7.251-20.013"/>
	<path display="inline" fill="#E7C369" d="M158.5,124c-1.138,1.503-2.762,3.386-4.2,4.737c-0.417,0.392-1.35,2.877-1.817,0.823
		c-0.224-0.979,0.91-2.017,1.456-2.823c2.491-3.68,4.734-7.13,6.824-11.162c0.211,2.151,0.413,7.569-2.22,8.218
		c-0.021,0.458-0.253,0.485-0.542,0.707"/>
	<path display="inline" fill="#E7C369" d="M151,135.75c-0.394-0.164-1.114-0.145-1.518-0.218c-0.16,2.228-2.963,3.793-4.184,5.729
		c-0.666,1.058-3.512,6.477-1.037,5.943c3.086-0.664,5.786-9.301,6.713-11.667c-0.238-0.061-0.503,0.029-0.725-0.038"/>
	<path display="inline" fill="#E7C369" d="M143,127c0.259-2.086,3.183-5.257,4.306-7.001c1.568-2.436,4.276-4.782,6.651-6.292
		c1.131-3.652-1.742-1.253-2.775-0.014c-1.149,1.379-2.525,2.378-3.674,3.995c-2.287,3.218-4.596,7.026-6.952,10.118
		c-1.151,1.511-2.849,2.303-4.262,3.762c-1.387,1.433-2.167,3.58-3.335,5.126c-1.247,1.651-2.896,2.864-4.146,4.861
		c-0.693,1.107-1.153,2.207-2.068,3.145c-0.633,0.648-2.337,1.348-2.567,2.244c-0.075,0.29-0.128,0.422-0.132,0.763
		c1.86,0.948,8.55-8.245,10.018-9.945c3.175-3.675,6.304-8.203,9.188-11.762"/>
	<path display="inline" fill="#E7C369" d="M130,117.25c-2.141,3.447-8.523,4.681-10.975,8.45c3.984,3.571,11.994-3.805,11.688-8.161
		c-0.766-0.284-0.456,0.177-0.713,0.461"/>
	<path display="inline" fill="#E7C369" d="M133.75,114c0.386-1.445,4.423-4.195,5.682-5.305c1.482-1.307,4.76-4.161,6.774-3.901
		c1.722,2.788-10.381,7.468-10.494,10.918c-1.006,0.022-2.006,0.306-2.932,0.506c-0.166-1.119,0.393-2.029,1.219-2.718"/>
	<path display="inline" fill="#E7C369" d="M141.25,97.75c-1.022,2.069-3.742,3.083-5.439,4.475
		c-2.272,1.863-4.564,3.605-7.324,5.017c-4.893,2.502-9.45,5.458-13.78,8.753c-3.948,3.003-9.349,3.319-13.456,6.013
		c-4.503,2.952-9.098,5.404-13.757,7.993c-5.234,2.909-9.993,6.125-15.001,9.25c-1.533,0.957-3.907,4.24-5.193,1.944
		c-1.837-3.278,3.081-2.522,4.658-3.134c4.02-1.558,8.242-5.393,11.793-7.804c4.01-2.723,8.934-4.41,13.013-7.05
		c3.594-2.325,6.848-5.283,10.231-8.018c3.245-2.623,7.45-3.778,11.013-5.75c3.807-2.107,7.758-4.326,11.543-6.077
		c2.337-1.081,3.869-1.862,5.762-3.562c1.063-0.955,2.997-2.973,4.438-2.799c0.407,0.049,0.813-0.063,1.212,0.038
		c0.167,0.598,0.012,1.1-0.212,1.462"/>
	<path display="inline" fill="#E7C369" d="M116.5,94.75c0.254,0.918,0.37,1.987,0.212,2.962c-1.775-0.1-12.908,4.911-12.225,1.525
		c0.286-1.415,4.733-2.085,5.818-2.237c2.528-0.355,4.183-1.152,6.444-2"/>
	<path display="inline" fill="#E7C369" d="M136.25,88.5c-2.724,1.037-5.21,1.162-8.001,1.933c-1.216,0.336-3.158,0.869-4.249,1.317
		c-1.315,0.54-2.574,0.651-1.457,2.706c3.086,0.171,10.438-3.843,12.381-1.976c0.795-1.426,3.472-2.993,0.825-4.231"/>
	<path display="inline" fill="#E7C369" d="M134.75,81c-1.917,1.646-4.652,0.604-7.026,0.987c-2.153,0.348-4.716,0.988-6.993,1.507
		c-4.558,1.038-9.496,1.886-13.706,2.963c-2.503,0.641-4.358,1.707-7.025,1.793c-2.32,0.075-4.694-0.166-6.994,0.056
		c-2.604,0.251-5.158,1.177-7.824,1.444c-2.708,0.272-4.333-1.484-1.182-2.25c1.825-0.443,4.197,0.092,6.074,0
		c2.204-0.107,4.088-0.851,6.158-1.263c2.577-0.513,4.852-0.691,7.27-1.486c1.81-0.596,3.863-0.981,5.727-1.263
		c4.455-0.674,9.217-0.837,13.515-1.963C125.28,80.86,126.528,80,129.318,80c1.996,0,3.988-0.052,5.9-0.206
		c-0.148,0.486-0.563,1.134-0.968,1.456"/>
	<path display="inline" fill="#E7C369" d="M120,69c1.348-1.205,5.318-0.154,7.268-0.251c2.104-0.104,4.958-0.856,6.939,0.295
		c0.083,0.373,0.081,0.792,0.006,1.169c-4.329,0.214-8.54,0.752-12.832-0.197c-3.932-0.87-7.539-2.016-11.636-2.016
		c-1.481,0-10.209-0.878-9.5,1.756c0.569,2.111,16.141,0.335,18.717,0.207c0.277-0.748-0.15-0.471-0.461-0.713"/>
	<path display="inline" fill="#E7C369" d="M70.25,49.75c3.892-1.378,9.049,0.751,12.999,1.493c4.543,0.854,9.036,1.029,13.744,1.257
		c4.87,0.237,9.673,1.293,14.495,2.194c4.547,0.85,8.564,2.601,13.02,3.305c1.932,0.306,3.854,0.459,5.73,0.251
		c2.464-0.272,4.228-1.068,3.725,2.462c-1.883,0.396-4.24-1.101-6.218-1.212c-2.561-0.144-4.984-0.118-7.493-0.486
		c-5.08-0.746-10.275-1.186-15.307-2.069c-5.861-1.029-11.197-2.623-17.201-2.694c-5.073-0.06-9.955-0.511-14.749-1.938
		C71.68,51.92,69.103,50.999,71,49.5"/>
	<path display="inline" fill="#E7C369" d="M125.25,45.5c2.309-0.323,5.102,1.721,6.987,2.763c0.771,0.427,6.664,2.822,4.212,4.187
		c-1.322,0.736-5.186-2.577-6.448-3.157C129.176,48.914,122.218,47.091,125.25,45.5"/>
	<path display="inline" fill="#E7C369" d="M117.25,46.25c1.019-2.228-1.57-4.638-3.987-5.012c-1.418-0.219-2.953,0.898-4.513,0.518
		c-1.441-0.352-2.344-1.649-3.706-1.975c0.825,4.978,9.305,2.83,11.956,6.469"/>
	<path display="inline" fill="#E7C369" d="M126,32.5c-1.714-0.886-3.139-2.003-4.931-3.068c-1.598-0.951-3.285-2.946-4.82-3.681
		c-1.287-0.617-5.1-0.862-4.754,1.247c0.222,1.35,4.237,2.648,5.505,3.314c6.88,3.616,13.67,7.775,20.426,10.994
		c1.06,0.505,2.008,1.08,2.831,1.913c0.847-0.308,0.98-0.502,0.95-1.426c-2.522-0.683-5.071-2.897-7.395-4.099
		c-3.039-1.571-5.909-3.08-8.311-5.194"/>
	<path display="inline" fill="#E7C369" d="M137,26.5c2.701,2.246,6.479,5.434,9.712,7.799c-0.403,0.693-1.085,1.375-1.657,1.933
		c-0.442-2.562-5.497-6.527-8.013-7.274c-0.538-0.629-0.898-1.387-1.004-2.17c0.247-0.064,0.469,0.009,0.711-0.037"/>
	<path display="inline" fill="#E7C369" d="M126.25,16.5c-1.077-0.452-6.118-6.191-6.498-3c-0.202,1.691,5.22,4.343,6.323,5.194
		c1.281,0.989,5.403,6.222,5.924,3.305c0.314-1.76-4.774-4.599-6.249-5.499"/>
	<path display="inline" fill="#E7C369" d="M134.5,2.25c3.578,3.959,6.504,8.499,9.8,12.919c1.855,2.488,3.626,4.829,5.651,7.156
		c1.507,1.733,3.698,3.674,3.261,6.137c-2.372,0.618-4.29-2.878-5.531-4.392c-1.503-1.833-3.171-3.584-4.62-5.582
		c-3.289-4.535-7.016-9.186-9.604-14.195c-1.79-0.16-3.555-3.094-4.776-4.355c-1.694-1.75-3.317-3.349-4.689-5.293
		c-2.517-3.568-4.316-8.172-8.451-10.437c-1.168-3.179-3.765-5.752-6.098-8.14c-1.449-1.483-2.659-3.442-3.958-4.944
		c-1.321-1.528-2.953-2.439-2.949-4.586c1.975-0.574,9.53,7.926,10.255,10.17c0.571,0.55,0.691,0.708,1,1.5
		c1.72,0.88,4.275,4.223,5.52,5.724c1.692,2.041,3.655,4.407,5.181,6.52c3.091,4.279,6.207,8.752,10.257,12.299"/>
	<path display="inline" fill="#E7C369" d="M143.75-6.25c2.962-1.265,3.9,3.867,4.701,5.8c1.093,2.636,2.643,4.915,3.261,7.651
		c-2.104,2.138-3.094-1.081-4.044-3.145c-0.993-2.159-2.767-5.331-3.211-7.512c-1.562-0.625-2.634-3.357,0.043-2.794"/>
	<path display="inline" fill="#E7C369" d="M154.5,11.5c1.729,1.7,3.574,2.441,4.694,4.806c0.541,1.141,2.919,6.18,1.056,6.723
		c-1.777,0.518-3.001-4.676-3.507-5.778c-0.678-1.477-4.234-4.99-1.993-5.75"/>
	<path display="inline" fill="#E7C369" d="M154-26.25c0.823,4.291,3.153,8.327,4.243,12.52c0.999,3.846,2.616,7.105,4.327,10.773
		c1.825,3.913,3.428,8.516,4.626,12.569c0.839,2.84,4.661,9.146-0.408,8.851c-1.726-8.305-4.204-15.893-7.592-23.658
		c-1.639-3.754-2.512-8.132-4.264-12.056c-1.149-2.573-4.62-9.117-3.188-12.255c0.227-0.496,0.251-0.681,0.756-1.024
		c1.009,1.317,0.908,3.648,1.75,5.03"/>
	<path display="inline" fill="#E7C369" d="M176.25,3.5c2.139,2.156,2.605,10.085,2.462,13.212c-3.166,0.896-1.623-3.865-1.713-5.461
		c-0.145-2.576-1.333-4.908-1.211-7.713c0.207-0.087,0.977-0.255,1.162-0.263c0.062,0.386,0.098,0.826,0.051,1.225"/>
	<path display="inline" fill="#E7C369" d="M172.5-17.25c2.692-0.06,1.522,6.46,1.811,8.445c0.225,1.544,2.648,9.181-0.537,8.266
		c-0.104-3.102-0.769-5.715-1.22-8.711c-0.196-1.301-1.992-8.955,0.445-7.75"/>
</g>
<g id="Layer_6">
	<path d="M40.846,16.673c0-4.322-1.552-8.102-3.781-10.6c-4.39-4.726-10.601-4.793-15.596-4.861H0v47.664h11.95V31.863h7.493
		l9.453,17.013h13.165L31.056,29.838C34.296,28.622,40.846,26.258,40.846,16.673z M21.807,23.018H11.95V10.124h10.127
		c2.497,0.067,6.887,0.269,6.887,6.346C28.964,22.817,23.495,22.952,21.807,23.018z"/>
	<path d="M66.299,1.212L48.61,48.876h12.692l2.364-7.628H81.22l2.362,7.628h12.694L78.721,1.212H66.299z M66.433,32.674
		c1.082-3.581,2.904-9.181,3.917-12.761c0.676-2.431,1.35-4.928,1.958-7.359l6.21,20.12H66.433z"/>
	<path d="M147.247,16.673c0-4.322-1.554-8.102-3.781-10.6c-4.389-4.726-10.6-4.793-15.596-4.861h-21.469v47.664h11.95V36.298
		c-4.048-1.266-6.987-5.043-6.987-9.509c0-5.505,4.462-9.966,9.965-9.966c5.504,0,9.966,4.461,9.966,9.966
		c0,3.212-1.528,6.063-3.889,7.884l7.891,14.203h13.165l-11.006-19.038C140.697,28.622,147.247,26.258,147.247,16.673z"/>
	<path d="M338.85-0.003c-14.18,0-20.66,11.815-20.66,24.979c0,8.439,2.635,14.719,6.01,18.635c3.914,4.658,8.775,6.481,14.65,6.481
		c3.916,0,9.654-0.745,14.312-6.211c3.848-4.526,6.01-11.884,6.076-19.176C359.307,13.904,354.649-0.003,338.85-0.003z
		 M338.647,46.041c-12.152,0-15.664-12.151-15.664-20.996c0-9.116,3.715-21.134,15.867-21.134c12.086,0,15.596,12.221,15.529,20.863
		C354.379,28.622,353.366,46.041,338.647,46.041z"/>
	<path d="M395.897,27.745c2.566-0.204,7.09-0.475,10.533-3.715c1.418-1.418,3.578-4.183,3.578-9.18
		c0-2.363-0.541-9.856-8.371-12.626c-2.973-1.012-5.064-1.012-13.367-1.08h-13.369v47.732h4.523V27.745h11.207l15.055,21.131h5.672
		L395.897,27.745z M379.424,23.829V5.196h11.207c6.01,0.066,6.615,0.066,7.967,0.336c4.658,0.946,6.953,4.457,6.953,9.115
		c0,3.849-1.822,7.695-6.887,8.711c-2.023,0.405-4.928,0.471-8.033,0.471H379.424z"/>
	<polygon points="174.386,28.151 196.195,28.151 196.195,19.103 174.386,19.103 174.386,10.46 197.748,10.46 197.748,1.212 
		162.504,1.212 162.504,48.876 199.839,48.876 199.839,39.491 174.386,39.491 	"/>
	<path d="M284.231-0.003c-14.178,0-20.658,11.815-20.658,24.979c0,8.439,2.632,14.719,6.008,18.635
		c3.916,4.658,8.777,6.481,14.65,6.481c3.916,0,9.654-0.745,14.312-6.211c3.85-4.526,6.008-11.884,6.076-19.176
		C304.688,13.904,300.03-0.003,284.231-0.003z M284.028,46.041c-12.151,0-15.662-12.151-15.662-20.996
		c0-9.116,3.713-21.134,15.865-21.134c12.084,0,15.596,12.221,15.527,20.863C299.758,28.622,298.747,46.041,284.028,46.041z"/>
	<path d="M237.986,2.629c-3.443-1.35-7.833-1.35-12.896-1.417h-12.692v47.664h12.356c8.034,0,12.355-0.065,16.676-3.441
		c5.267-4.121,8.507-11.613,8.507-20.524C249.936,13.769,244.805,5.329,237.986,2.629z M236.704,43.407
		c-3.175,1.486-8.643,1.418-12.559,1.418h-7.156V5.397h8.303c5.875,0,8.439,0,11.074,1.148c5.805,2.565,9.045,10.397,9.045,18.566
		C245.411,34.632,241.293,41.313,236.704,43.407z"/>
</g>
</svg>
