<?xml version="1.0" encoding="utf-8"?>
<!-- Generator: Adobe Illustrator 18.1.0, SVG Export Plug-In . SVG Version: 6.00 Build 0)  -->
<svg version="1.1" id="Layer_1" xmlns="http://www.w3.org/2000/svg" xmlns:xlink="http://www.w3.org/1999/xlink" x="0px" y="0px"
	 viewBox="-429 231 100 100" enable-background="new -429 231 100 100" xml:space="preserve">
<path d="M-359.6,246.1c0-1.2-1-2.1-2.2-2.1h-31.8c-1.2,0-2.2,1-2.2,2.1l-3.7,28.8l0,0.1c0,1.2,1,2.2,2.2,2.2h15.8V309h-11.2
	c-1.2,0-2.2,1-2.2,2.2v2.6c0,1.2,1,2.2,2.2,2.2h29.9c1.2,0,2.2-1,2.2-2.2v-2.6c0-1.2-1-2.2-2.2-2.2h-11.7v-31.7h6.8v8.9
	c-1.3,0.4-2.3,1.6-2.3,3c0,1.7,1.4,3.1,3.1,3.1c1.7,0,3.1-1.4,3.1-3.1c0-1.4-1-2.6-2.3-3v-8.9h7.8c1.2,0,2.2-1,2.2-2.2L-359.6,246.1
	z M-365.3,289.1c0,0.8-0.7,1.5-1.5,1.5c-0.8,0-1.5-0.7-1.5-1.5c0-0.8,0.7-1.5,1.5-1.5C-366,287.7-365.3,288.3-365.3,289.1z
	 M-362.2,311.2v2.6c0,0.3-0.3,0.6-0.6,0.6h-29.9c-0.3,0-0.6-0.3-0.6-0.6v-2.6c0-0.3,0.3-0.6,0.6-0.6h29.9
	C-362.4,310.6-362.2,310.9-362.2,311.2z M-376.1,309h-3.7v-31.7h3.7V309z M-358.1,275.6h-39.2c-0.3,0-0.5-0.2-0.6-0.5l3.7-28.8
	l0-0.1c0-0.3,0.3-0.6,0.6-0.6h31.8c0.3,0,0.6,0.3,0.6,0.6l3.7,28.9C-357.6,275.4-357.8,275.6-358.1,275.6z"/>
</svg>
