<?xml version="1.0" encoding="utf-8"?>
<!-- Generator: Adobe Illustrator 18.1.0, SVG Export Plug-In . SVG Version: 6.00 Build 0)  -->
<svg version="1.1" id="Your_Icon" xmlns="http://www.w3.org/2000/svg" xmlns:xlink="http://www.w3.org/1999/xlink" x="0px" y="0px"
	 viewBox="-429 231 100 100" enable-background="new -429 231 100 100" xml:space="preserve">
<path d="M-413,296c-8.3,0-15-6.7-15-15s6.7-15,15-15s15,6.7,15,15S-404.7,296-413,296z M-413,276c-2.8,0-5,2.2-5,5s2.2,5,5,5
	s5-2.2,5-5S-410.2,276-413,276z"/>
<path d="M-378.5,296c-8.3,0-15-6.7-15-15s6.7-15,15-15s15,6.7,15,15S-370.2,296-378.5,296z M-378.5,276c-2.8,0-5,2.2-5,5s2.2,5,5,5
	s5-2.2,5-5S-375.7,276-378.5,276z"/>
<path d="M-345,296c-8.3,0-15-6.7-15-15s6.7-15,15-15s15,6.7,15,15S-336.7,296-345,296z M-345,276c-2.8,0-5,2.2-5,5s2.2,5,5,5
	s5-2.2,5-5S-342.2,276-345,276z"/>
</svg>
