<?xml version="1.0" encoding="utf-8"?>
<!-- Generator: Adobe Illustrator 18.1.0, SVG Export Plug-In . SVG Version: 6.00 Build 0)  -->
<svg version="1.1" id="Слой_1" xmlns="http://www.w3.org/2000/svg" xmlns:xlink="http://www.w3.org/1999/xlink" x="0px" y="0px"
	 viewBox="-429 231 100 100" enable-background="new -429 231 100 100" xml:space="preserve">
<path d="M-356,254.3c-0.4-0.4-0.8-0.5-1.3-0.5h-51.9c-0.7,0-1.4,0.4-1.7,1.1c-0.3,0.7-0.1,1.5,0.4,2l2.2,2.2v24.2
	c0,1.6,1.3,2.8,2.8,2.8c1.6,0,2.8-1.3,2.8-2.8v-18.6l3.3,3.3c0.4,0.4,0.8,0.5,1.3,0.5h1v25.9c0,1.6,1.3,2.8,2.8,2.8
	c1.6,0,2.8-1.3,2.8-2.8v-25.9h27.8v14.8c0,1.6,1.3,2.8,2.8,2.8c1.6,0,2.8-1.3,2.8-2.8v-14.8h5.6v25.9c0,1.6,1.3,2.8,2.8,2.8
	c1.6,0,2.8-1.3,2.8-2.8v-25.9h1l0,0c1,0,1.9-0.8,1.9-1.9c0-0.6-0.3-1.1-0.7-1.4L-356,254.3z M-404.5,283.4c0,0.5-0.4,1-1,1
	s-1-0.4-1-1V261l1.9,1.9L-404.5,283.4L-404.5,283.4z M-393.4,294.5c0,0.5-0.4,1-1,1c-0.5,0-1-0.4-1-1v-25.9h1.9L-393.4,294.5
	L-393.4,294.5z M-360.1,283.4c0,0.5-0.4,1-1,1s-1-0.4-1-1v-14.8h1.9L-360.1,283.4L-360.1,283.4z M-397.3,264.9l-7.4-7.4h46.6
	l7.4,7.4H-397.3z M-349,294.5c0,0.5-0.4,1-1,1s-1-0.4-1-1v-25.9h1.9L-349,294.5L-349,294.5z"/>
</svg>
